<svg version="1.1" id="Layer_1" xmlns="http://www.w3.org/2000/svg" x="0px" y="0px"
	 width="1920" height="900" viewBox="0 0 1920 900" enable-background="new 0 0 1920 900" xml:space="preserve">
<path fill="#FFFFFF" opacity="1.000000" stroke="none" 
	d="
M1.999990,1202.000000 
	C2.000000,1095.958252 2.000000,989.916443 2.866964,882.817871 
	C7.057168,881.965576 10.385716,882.106628 13.702837,882.384216 
	C53.620884,885.724609 86.876244,856.045837 89.601349,816.932190 
	C92.451195,776.028137 59.091705,740.708130 18.932049,742.010254 
	C13.294070,742.193115 7.644309,742.012451 2.000000,742.000000 
	C2.000000,495.553680 2.000000,249.107361 2.000000,2.000000 
	C81.373901,2.000000 160.749634,2.000000 241.135925,2.909819 
	C242.678162,30.246861 246.074783,56.266983 254.323151,81.440002 
	C274.602386,143.329590 311.982727,192.046829 367.871704,225.800278 
	C414.799042,254.141418 465.760406,266.340332 520.690369,262.469391 
	C547.882141,260.553162 574.128784,254.977371 599.213318,244.772079 
	C640.677490,227.902985 675.888123,202.194778 704.042969,167.179718 
	C742.816711,118.958321 762.515015,64.019104 762.000000,2.000000 
	C852.708435,2.000000 943.416931,2.000000 1034.476562,2.572172 
	C1024.417969,4.162493 1014.008179,5.180642 1002.115234,6.343854 
	C1004.838318,9.429852 1006.432495,11.444132 1008.235840,13.249500 
	C1041.913452,46.965687 1075.575195,80.697853 1109.359863,114.306602 
	C1114.058594,118.980865 1119.144043,123.349213 1124.463501,127.303665 
	C1167.060791,158.970551 1214.720337,171.892487 1267.247803,163.521362 
	C1307.427124,157.118118 1342.234253,139.309448 1370.966919,110.057533 
	C1389.881592,90.801048 1409.050537,71.792244 1428.271362,52.840557 
	C1431.527710,49.629913 1435.277832,46.499710 1439.392944,44.655975 
	C1454.273560,37.988914 1469.646729,43.524139 1477.447144,53.227959 
	C1489.140381,67.774551 1488.265015,83.323524 1478.411377,96.278824 
	C1476.408569,98.911873 1473.869873,101.146233 1471.515381,103.501389 
	C1408.607300,166.427124 1345.749023,229.402969 1282.727173,292.214508 
	C1270.039551,304.859833 1260.523804,319.680237 1252.736084,335.477997 
	C1244.641113,351.899200 1239.673950,369.383057 1237.382080,387.807037 
	C1233.945801,415.428925 1236.377441,442.156281 1246.127441,468.151154 
	C1256.714478,496.377625 1272.894287,520.619995 1296.499756,539.921631 
	C1311.353882,552.067444 1327.271118,562.027771 1345.231323,568.610962 
	C1371.823608,578.358276 1398.976807,582.499512 1427.410522,578.293762 
	C1451.449585,574.738098 1473.889526,567.583252 1494.622925,554.828552 
	C1511.506348,544.442261 1525.561646,530.842407 1539.459473,516.971802 
	C1543.432739,513.006165 1547.849609,509.485077 1552.666504,506.079346 
	C1555.290527,508.119446 1557.197632,509.999359 1559.349365,511.537018 
	C1584.467407,529.486694 1611.572021,532.778442 1639.215698,519.303406 
	C1667.270142,505.628296 1681.527710,482.012634 1682.156006,450.608337 
	C1682.561279,430.348236 1674.661743,413.204620 1661.896973,397.337921 
	C1670.500610,387.431854 1678.773438,378.022522 1687.520874,369.077454 
	C1701.684326,354.593964 1716.180908,340.436401 1730.496948,326.101379 
	C1742.682129,313.899902 1754.792236,301.623352 1766.970215,289.414612 
	C1781.743896,274.603333 1796.550537,259.824768 1811.349365,245.038635 
	C1823.314087,233.084320 1835.276367,221.127579 1847.261475,209.193710 
	C1861.381592,195.133987 1875.541138,181.113800 1889.654053,167.046799 
	C1902.807251,153.936462 1915.938721,140.804169 1929.048462,127.650299 
	C1943.114502,113.536713 1957.120117,99.362930 1971.196533,85.259758 
	C1983.377686,73.055367 1995.620117,60.912228 2007.836792,48.743317 
	C2021.483887,35.149490 2035.176392,21.600658 2048.719482,7.903950 
	C2050.244141,6.362173 2050.926758,3.988117 2052.000000,2.000007 
	C2099.375244,2.000000 2146.750244,2.000000 2195.069092,2.698553 
	C2193.506836,6.446231 2191.235596,9.729506 2188.460205,12.509842 
	C2132.190430,68.880089 2075.860840,125.190300 2019.554199,181.523544 
	C2016.728149,184.350784 2013.711060,187.052307 2011.275635,190.194275 
	C1992.643311,214.233047 1976.864136,239.697433 1967.080688,268.924896 
	C1955.463867,303.629364 1951.838745,338.897797 1956.410400,374.922516 
	C1959.556030,399.711395 1966.899048,423.378479 1977.499634,446.241699 
	C1994.878296,483.723663 2020.735840,513.892944 2053.934570,537.767822 
	C2092.181396,565.272888 2135.501465,579.079956 2182.330566,581.799866 
	C2204.348877,583.078613 2226.219727,580.280762 2247.508789,574.952515 
	C2291.735596,563.883301 2329.981934,542.100037 2361.981445,509.294464 
	C2388.274658,482.339264 2415.166016,455.967682 2441.794434,429.339478 
	C2521.208008,349.926056 2600.641357,270.532227 2680.009277,191.073242 
	C2688.371094,182.701859 2697.709473,177.514435 2710.027344,177.907547 
	C2736.208252,178.743134 2753.041748,208.528381 2739.448242,230.839600 
	C2736.373047,235.887146 2732.320557,240.477722 2728.120361,244.681259 
	C2571.240479,401.685181 2414.279297,558.607788 2257.392334,715.604431 
	C2251.533203,721.467712 2245.770752,727.567993 2240.872070,734.226379 
	C2218.477295,764.666504 2210.584717,799.000183 2216.575439,836.004639 
	C2221.867432,868.691711 2238.056641,895.659851 2263.720703,916.842163 
	C2295.426025,943.011414 2331.979248,951.927551 2371.923584,945.403442 
	C2399.409424,940.914185 2423.285645,928.236572 2443.206543,908.119629 
	C2488.931396,861.944153 2535.029297,816.137878 2581.008057,770.214294 
	C2584.061523,767.164551 2587.387939,764.388184 2591.178467,761.805664 
	C2593.307861,763.378540 2594.750977,764.774658 2596.398682,765.860474 
	C2617.010254,779.441772 2643.920166,766.203003 2645.482910,741.631348 
	C2646.107178,731.815063 2641.846191,723.703186 2636.000977,715.858765 
	C2637.466064,714.014038 2638.498779,712.701111 2639.671387,711.527954 
	C2683.709717,667.468750 2727.738037,623.399231 2771.854004,579.417847 
	C2775.365234,575.917358 2779.285645,572.732239 2783.377930,569.928833 
	C2793.932617,562.698792 2813.419678,563.328979 2823.895020,570.890015 
	C2843.928467,585.349915 2848.995850,611.798523 2828.593750,632.042053 
	C2809.115967,651.368225 2792.098145,672.377197 2778.408447,696.225891 
	C2757.180176,733.206909 2745.236816,773.061768 2742.285645,815.329346 
	C2740.009521,847.926086 2742.807373,880.296509 2751.856934,912.025818 
	C2764.403809,956.017334 2785.177246,995.477234 2817.257324,1028.090088 
	C2876.358643,1088.172241 2936.267578,1147.460083 2995.874023,1207.044434 
	C2997.721436,1208.890991 2999.949463,1210.356689 3002.000000,1212.000000 
	C3002.000000,1475.101440 3002.000000,1738.202881 3002.000000,2002.000000 
	C2934.626465,2002.000000 2867.250488,2002.000000 2798.980469,2001.078247 
	C2798.633789,1988.749756 2796.758789,1977.660278 2794.235596,1966.569458 
	C2787.569580,1937.268799 2773.871826,1911.704468 2753.044922,1890.233643 
	C2716.433105,1852.489990 2671.344971,1836.392212 2619.230225,1840.561523 
	C2586.115723,1843.210815 2556.327881,1855.759521 2531.123779,1877.098633 
	C2492.778320,1909.563477 2472.678467,1951.358521 2472.000000,2002.000000 
	C2386.624756,2002.000000 2301.249756,2002.000000 2214.934082,2001.075195 
	C2212.721191,1986.295044 2211.759521,1972.402466 2210.112549,1958.591797 
	C2206.524170,1928.501831 2196.446533,1900.310913 2182.261719,1873.828491 
	C2165.363281,1842.279541 2144.124756,1813.961548 2116.208496,1790.877930 
	C2099.205811,1776.818726 2081.483398,1763.993774 2061.808350,1754.126953 
	C2032.188110,1739.272705 2001.102539,1729.278564 1967.901001,1725.653076 
	C1941.921021,1722.816284 1916.010986,1722.667236 1890.362671,1726.632568 
	C1857.980835,1731.638794 1827.352173,1742.386597 1798.571899,1758.497681 
	C1766.539185,1776.429443 1738.591675,1798.959595 1715.253662,1827.977905 
	C1712.702271,1827.314941 1710.596680,1827.033691 1709.113281,1825.922119 
	C1688.349121,1810.361328 1665.794556,1797.830322 1642.625488,1786.319824 
	C1637.046631,1783.547974 1631.485718,1780.740479 1626.204468,1777.343994 
	C1644.163086,1759.057129 1661.835938,1741.377808 1679.500854,1723.690552 
	C1681.148193,1722.041260 1682.846558,1720.426758 1684.343140,1718.646606 
	C1686.570190,1715.997559 1686.677979,1713.135742 1684.292847,1710.551758 
	C1681.875366,1707.932251 1679.040771,1707.860474 1676.281738,1710.056763 
	C1674.724365,1711.296631 1673.320190,1712.737549 1671.904663,1714.145630 
	C1666.705688,1719.317505 1661.563110,1724.546265 1656.341309,1729.694824 
	C1641.164917,1744.657471 1625.960571,1759.591553 1610.080322,1774.167969 
	C1606.352173,1772.475464 1603.400391,1770.870605 1600.255859,1769.873047 
	C1574.907349,1761.830688 1549.112671,1755.787964 1523.136230,1752.374756 
	C1526.650635,1748.678711 1529.604248,1745.518066 1532.661011,1742.460571 
	C1614.608521,1660.492676 1696.569092,1578.537842 1778.510254,1496.563354 
	C1780.855469,1494.217285 1783.664795,1491.993530 1785.026123,1489.127686 
	C1785.905151,1487.277100 1785.347412,1483.528931 1783.942749,1482.153442 
	C1782.561523,1480.800659 1778.906982,1480.470703 1776.956665,1481.318115 
	C1774.365601,1482.443970 1772.383179,1485.069702 1770.270142,1487.181885 
	C1705.728394,1551.698242 1641.229126,1616.257202 1576.660400,1680.746460 
	C1553.343140,1704.035034 1529.864990,1727.162720 1505.498047,1750.275513 
	C1480.616577,1750.815796 1456.538452,1749.956055 1432.823120,1752.491821 
	C1409.197998,1755.018066 1385.876343,1760.195435 1362.859741,1767.062622 
	C1317.685913,1780.540527 1276.385498,1801.268311 1239.259033,1829.984375 
	C1221.968018,1843.358154 1206.003296,1858.498657 1189.894409,1873.334717 
	C1172.771606,1889.104370 1145.368652,1882.490234 1137.831909,1860.487549 
	C1133.130127,1846.761597 1137.697021,1835.562622 1147.157227,1826.001465 
	C1175.047119,1797.814209 1203.047729,1769.733276 1231.269165,1741.878540 
	C1246.902588,1726.447998 1258.918579,1708.733521 1266.732422,1688.286377 
	C1277.198975,1660.897705 1279.330811,1632.610596 1272.876221,1604.105347 
	C1266.430786,1575.640381 1253.157349,1550.681030 1231.570068,1530.435669 
	C1212.792847,1512.825317 1191.488770,1499.805298 1166.340942,1493.815430 
	C1150.597778,1490.065674 1134.826050,1486.206787 1118.294800,1489.784546 
	C1107.973633,1492.018188 1097.012939,1491.840576 1087.020264,1494.940186 
	C1063.242798,1502.315796 1042.100830,1514.590332 1024.431274,1532.529541 
	C1005.023804,1552.233521 985.368774,1571.694092 965.761841,1591.200684 
	C963.185730,1593.763672 960.256531,1595.971680 956.890747,1598.046265 
	C954.455566,1596.346558 952.728943,1594.767456 950.768921,1593.570435 
	C930.166138,1580.987061 903.931763,1594.979492 902.996216,1619.029541 
	C902.628052,1628.493164 906.421204,1636.359375 912.165771,1643.948242 
	C909.817017,1646.796631 907.894958,1649.097900 905.783875,1651.210449 
	C858.673035,1698.356445 811.541565,1745.481689 764.413696,1792.610596 
	C743.206177,1813.818848 721.806885,1834.840088 700.893372,1856.334229 
	C693.575439,1863.855103 684.582520,1867.131836 674.999939,1867.441528 
	C652.019714,1868.184204 634.333374,1844.971313 639.370117,1822.559082 
	C641.383545,1813.599487 646.250366,1806.884033 652.432922,1800.700317 
	C693.195374,1759.930542 734.015747,1719.218506 774.685974,1678.357056 
	C782.413330,1670.593506 789.927368,1662.554443 796.897278,1654.111938 
	C819.037598,1627.293945 829.244568,1595.657227 831.748535,1561.571045 
	C833.414917,1538.885620 829.770142,1516.566895 822.057617,1495.037598 
	C806.400085,1451.330078 777.752197,1418.906860 736.210632,1398.494141 
	C704.687439,1383.004272 671.232178,1378.648193 636.305725,1383.718994 
	C599.427063,1389.073120 568.329163,1405.307007 541.905701,1431.110718 
	C532.369446,1440.423096 523.283508,1450.209839 513.522278,1459.274414 
	C506.740204,1465.572510 499.718292,1471.951904 491.823914,1476.648438 
	C469.337921,1490.025757 445.357422,1491.502563 420.995331,1482.325806 
	C403.317444,1475.666992 389.709259,1464.001709 380.161987,1447.404541 
	C368.486420,1427.107422 364.839020,1406.047363 371.240021,1383.258301 
	C375.800781,1367.020874 385.306946,1353.970093 396.858002,1342.353882 
	C447.378235,1291.548950 498.117004,1240.961304 548.735107,1190.253662 
	C552.013916,1186.968994 555.189758,1183.523926 557.998779,1179.837646 
	C575.990173,1156.227295 587.845886,1129.763062 593.349365,1100.645264 
	C595.619019,1088.636963 597.511536,1076.356079 597.572144,1064.189087 
	C597.631104,1052.358276 595.928589,1040.354980 593.607117,1028.704834 
	C584.268555,981.840942 560.672668,943.374756 522.606995,914.534058 
	C498.797699,896.494812 472.007263,884.732666 442.161774,879.318420 
	C416.480591,874.659668 391.271545,875.199951 366.196472,881.068542 
	C330.836304,889.344421 300.294098,906.274841 274.435883,932.293152 
	C187.283157,1019.985229 99.706825,1107.256348 12.207635,1194.603516 
	C9.270745,1197.535400 5.423100,1199.555054 1.999990,1202.000000 
M836.792969,440.963379 
	C871.405884,467.833862 909.891296,480.553345 954.052734,474.111389 
	C985.694336,469.495728 1012.904480,456.164886 1036.191650,434.565674 
	C1050.775879,421.038635 1061.130371,404.544495 1069.773804,386.710205 
	C1082.133545,361.207703 1084.137329,334.169647 1081.428345,306.790405 
	C1078.932739,281.569794 1068.944458,258.859009 1054.159302,238.123230 
	C1040.732422,219.292755 1023.656128,204.693314 1003.493286,194.044434 
	C974.565308,178.766357 943.782837,172.813873 910.992310,177.943817 
	C880.140381,182.770493 853.334412,195.555374 830.563843,216.724808 
	C813.760315,232.346771 801.450562,251.210007 793.057190,272.484894 
	C782.922546,298.173615 781.730652,324.808899 785.630493,351.906433 
	C788.828979,374.131287 798.261108,393.825653 810.494751,412.188568 
	C814.985596,418.929352 821.499329,424.322479 826.412415,431.558655 
	C810.000305,448.078308 793.581055,464.590881 777.185791,481.127197 
	C775.317749,483.011322 772.846863,484.760681 772.008606,487.064789 
	C771.261536,489.118103 771.556030,492.694824 772.924927,494.051575 
	C774.293701,495.408264 777.876587,495.674408 779.918457,494.904846 
	C782.214294,494.039581 783.912354,491.521667 785.800476,489.651947 
	C802.543396,473.071594 819.270813,456.475647 836.792969,440.963379 
M2728.308350,1232.717896 
	C2750.508057,1251.899658 2775.985596,1256.847412 2802.765869,1245.938354 
	C2834.314453,1233.087036 2851.112305,1204.503906 2845.445312,1167.478394 
	C2841.115234,1139.186157 2815.973633,1116.200439 2789.953125,1111.208618 
	C2764.016846,1106.233032 2734.477295,1117.464966 2718.666504,1139.427856 
	C2700.055420,1165.280762 2700.614014,1205.840454 2728.308350,1232.717896 
M697.873962,853.080933 
	C700.247192,850.742493 702.612610,848.396118 704.994934,846.067017 
	C716.332153,834.983093 721.364807,820.969666 721.805420,805.656921 
	C722.525146,780.645081 710.716370,755.861877 681.172546,744.495239 
	C652.729858,733.552124 623.466797,743.088806 607.024109,767.104797 
	C585.564392,798.448669 593.746704,836.930115 627.213440,857.914612 
	C635.584656,863.163574 645.085632,865.958801 655.506470,866.288269 
	C670.860413,866.773682 684.281006,862.308289 697.873962,853.080933 
M2361.529297,1635.639404 
	C2350.643066,1634.886963 2343.891357,1637.907837 2340.842285,1645.640869 
	C2337.596680,1653.872925 2339.250977,1661.279053 2345.773438,1667.525024 
	C2350.043945,1671.614380 2354.125977,1675.900635 2359.237793,1681.051025 
	C2353.597656,1686.254150 2348.276611,1690.377441 2343.917969,1695.345093 
	C2334.317383,1706.286987 2340.310791,1723.032349 2354.450928,1725.456177 
	C2360.869141,1726.556152 2366.230957,1724.127808 2370.814453,1719.805298 
	C2375.368896,1715.510376 2379.825195,1711.111572 2385.347656,1705.768311 
	C2390.145752,1711.001465 2394.220459,1715.856445 2398.736328,1720.258911 
	C2403.552246,1724.953613 2409.430908,1726.892456 2416.165527,1725.019287 
	C2429.783203,1721.231445 2434.202637,1705.732300 2424.623047,1694.797729 
	C2420.317871,1689.883789 2415.521729,1685.400391 2410.612549,1680.378052 
	C2415.664307,1675.186157 2420.132568,1670.756470 2424.411377,1666.150635 
	C2428.726318,1661.506348 2430.807373,1656.010864 2429.473389,1649.634277 
	C2426.617920,1635.983643 2410.483643,1630.396851 2399.723633,1639.525146 
	C2394.470215,1643.981812 2389.811768,1649.140015 2385.163818,1653.705811 
	C2377.375488,1647.463501 2370.179199,1641.695801 2361.529297,1635.639404 
M194.773544,448.215393 
	C197.085449,450.104004 199.251053,452.215332 201.732864,453.845215 
	C218.575867,464.906494 241.860641,462.238831 255.635284,447.773285 
	C269.848511,432.847107 271.607697,410.253265 259.843323,393.727570 
	C247.917267,376.974731 226.279938,371.160736 207.537964,379.433746 
	C182.537460,390.469360 172.987137,424.198547 194.773544,448.215393 
M963.269653,1235.603394 
	C960.962402,1234.293091 958.722168,1232.843506 956.336914,1231.695068 
	C941.998962,1224.792114 925.901428,1227.867676 915.669006,1239.939941 
	C906.759521,1250.451538 904.404724,1262.531738 910.202820,1275.241089 
	C915.601501,1287.074707 924.208008,1295.143555 938.177856,1295.968018 
	C952.829346,1296.832886 963.929260,1291.604126 971.284790,1278.575562 
	C977.454529,1267.647583 978.102783,1250.275757 963.269653,1235.603394 
M900.647949,1320.735962 
	C891.794983,1298.213135 859.174561,1292.476929 842.906494,1312.737427 
	C830.830139,1327.777588 833.343506,1349.390015 848.892822,1361.568726 
	C862.805481,1372.465698 887.491394,1369.419922 896.866943,1354.467407 
	C903.407715,1344.035767 905.093811,1333.650513 900.647949,1320.735962 
M1812.675537,513.038940 
	C1818.492554,514.078796 1824.292969,515.877686 1830.129883,516.005005 
	C1843.466431,516.295715 1855.068237,508.156708 1859.685303,496.256500 
	C1865.157349,482.152557 1861.561768,467.338257 1850.229736,457.299133 
	C1841.376587,449.456055 1825.540405,447.536957 1814.622192,452.731506 
	C1788.261353,465.273102 1791.018066,502.133179 1812.675537,513.038940 
M828.934753,822.958801 
	C832.457764,835.627197 841.338684,838.395752 850.736267,829.748230 
	C853.309692,827.380249 855.859741,824.986877 859.388855,821.704346 
	C862.228638,825.097351 864.137756,827.887085 866.542236,830.150696 
	C872.450745,835.712646 879.459717,836.051636 884.260742,831.318481 
	C889.229248,826.420288 889.072266,819.754456 883.690002,813.575195 
	C881.163269,810.674133 878.410339,807.970093 874.712769,804.073242 
	C878.250732,801.172241 881.385010,799.134033 883.846191,796.473145 
	C888.997253,790.904297 889.164307,784.357666 884.739136,779.511597 
	C880.182373,774.521423 872.919067,774.540466 866.967041,779.684570 
	C864.039673,782.214661 861.281738,784.940796 857.077820,788.852051 
	C854.373779,785.502075 852.362549,782.389343 849.752258,779.906372 
	C844.351990,774.769653 837.490662,774.456360 832.794617,778.706543 
	C827.750732,783.271484 827.709290,790.572327 832.856873,796.463135 
	C835.404724,799.378845 838.207031,802.072205 840.262634,804.209412 
	C836.116760,810.603699 832.581909,816.055603 828.934753,822.958801 
M261.449768,619.870911
	C262.266266,618.065369 263.493774,616.331482 263.823700,614.441040
	C264.898499,608.281616 261.951355,602.615967 256.826294,600.304016
	C252.092194,598.168457 245.508316,599.413696 242.001801,603.107788
	C238.163605,607.151306 237.376968,612.992554 240.010437,617.894775
	C242.815353,623.116150 248.228729,625.675293 254.390854,624.192810
	C256.537201,623.676392 258.418915,622.060181 261.449768,619.870911
M133.628586,608.145325 
	C132.347870,606.231079 131.369125,603.992065 129.727631,602.465820 
	C125.463676,598.501099 118.748230,598.202576 114.046677,601.392517 
	C109.127426,604.730164 107.195801,610.855957 109.337517,616.326599 
	C111.576561,622.045776 116.562660,625.102417 122.713280,624.526367 
	C129.961029,623.847656 133.246292,619.490479 133.628586,608.145325 
M2950.260498,1725.033936 
	C2953.430176,1724.713745 2956.916016,1725.126343 2959.704102,1723.922607 
	C2965.713135,1721.328369 2968.106934,1714.202271 2965.797852,1707.970215 
	C2963.749512,1702.441895 2957.402588,1698.991333 2951.379395,1700.131348 
	C2945.442383,1701.255249 2940.981445,1706.694824 2941.147217,1712.887329 
	C2941.291748,1718.298584 2943.769775,1722.296387 2950.260498,1725.033936 
M2619.994141,1721.082153 
	C2621.901367,1722.327881 2623.664551,1723.951538 2625.744385,1724.744873 
	C2630.899170,1726.710693 2636.482422,1724.945679 2639.879639,1720.685425 
	C2643.015381,1716.752930 2643.348389,1710.116943 2640.624512,1705.843140 
	C2637.541748,1701.006226 2631.358887,1698.736084 2625.934082,1700.449219 
	C2620.877930,1702.046021 2617.032227,1706.906006 2617.184326,1712.358887 
	C2617.254395,1714.880493 2618.458008,1717.370605 2619.994141,1721.082153 
M2619.114502,1653.918457 
	C2620.557373,1655.241333 2621.812012,1656.905396 2623.477783,1657.824829 
	C2629.120605,1660.939819 2634.540527,1660.121094 2638.858398,1655.824463 
	C2642.754150,1651.947876 2643.651123,1645.104004 2640.891602,1640.313354 
	C2638.074463,1635.422729 2631.852051,1632.875488 2626.414062,1634.386475 
	C2620.947998,1635.905273 2617.104492,1640.857056 2617.075684,1646.908203 
	C2617.066650,1648.824829 2617.897461,1650.745605 2619.114502,1653.918457 
M2892.116943,1725.419678 
	C2893.621826,1724.765503 2895.309082,1724.360107 2896.599854,1723.413574 
	C2901.983643,1719.465698 2903.798584,1713.366943 2901.464600,1707.753906 
	C2899.277832,1702.495605 2893.609619,1699.290527 2887.862549,1700.063354 
	C2882.498779,1700.784912 2878.284668,1704.794678 2877.163574,1710.243896 
	C2875.882568,1716.468628 2878.630371,1721.734375 2884.917969,1724.515259 
	C2886.655518,1725.283813 2888.718018,1725.316650 2892.116943,1725.419678 
M2763.681152,1700.519897 
	C2761.400391,1700.408569 2759.021729,1699.823853 2756.857178,1700.272705 
	C2749.615479,1701.774292 2745.365479,1709.039917 2747.314941,1716.042725 
	C2749.214111,1722.864136 2755.990967,1726.963867 2762.513916,1725.237183 
	C2769.751709,1723.321289 2774.266113,1716.179321 2771.717773,1709.260864 
	C2770.580322,1706.172363 2767.352295,1703.854126 2763.681152,1700.519897 
M2706.612793,1711.364136 
	C2705.611816,1708.993408 2705.068848,1706.255249 2703.519531,1704.324707 
	C2699.739502,1699.614746 2693.703125,1698.648804 2688.347900,1701.338501 
	C2683.297852,1703.874878 2680.803223,1708.608765 2681.482666,1714.365723 
	C2682.171875,1720.205078 2686.486572,1724.636353 2692.360596,1725.537598 
	C2699.508301,1726.634033 2704.612793,1722.097656 2706.612793,1711.364136 
M2566.366699,1700.119751 
	C2563.476074,1700.630005 2560.324707,1700.577271 2557.750488,1701.770264 
	C2552.723633,1704.100342 2550.552246,1709.524170 2551.591553,1715.248413 
	C2552.560303,1720.583618 2556.935059,1724.745361 2562.431152,1725.559814 
	C2567.156006,1726.260010 2572.632080,1723.510742 2575.086426,1719.206055 
	C2579.017578,1712.311523 2576.519775,1705.821899 2566.366699,1700.119751 
M61.303474,624.026733 
	C63.551208,622.192871 66.304688,620.722351 67.939125,618.447815 
	C71.128349,614.009583 70.428513,608.045715 66.920952,603.764526 
	C63.663506,599.788574 57.689236,598.199890 52.551067,599.943237 
	C48.010262,601.483887 44.504501,606.195007 44.187370,611.182617 
	C43.670067,619.318359 49.423222,624.137024 61.303474,624.026733 
M2890.655518,1659.688354 
	C2893.043945,1658.661011 2895.772461,1658.069946 2897.755859,1656.523315 
	C2903.487305,1652.053223 2903.940674,1643.377930 2899.060547,1638.092896 
	C2893.849121,1632.449341 2884.844482,1632.647583 2879.867432,1638.515625 
	C2875.230957,1643.981934 2876.038818,1652.743286 2881.901611,1656.893921 
	C2883.954346,1658.347168 2886.705566,1658.813477 2890.655518,1659.688354 
M2816.049805,1636.567017 
	C2814.593262,1638.736938 2812.614990,1640.725708 2811.785889,1643.113647 
	C2809.891113,1648.572021 2811.951416,1654.145874 2816.404053,1657.245117 
	C2821.110596,1660.520996 2826.786621,1660.486328 2831.337158,1657.154297 
	C2835.733398,1653.935059 2837.614502,1648.231079 2836.040283,1642.890869 
	C2833.846924,1635.450317 2827.042969,1632.855347 2816.049805,1636.567017 
M2767.479980,1656.886108 
	C2769.013672,1654.425293 2771.178223,1652.145752 2771.947510,1649.465576 
	C2773.480957,1644.124390 2770.880859,1638.672974 2766.272705,1635.868286 
	C2761.229004,1632.798462 2755.050049,1633.471802 2750.780518,1637.556396 
	C2746.835205,1641.330933 2745.719727,1647.049438 2747.947021,1652.083374 
	C2750.904785,1658.769287 2757.259033,1660.732056 2767.479980,1656.886108 
M254.083481,533.602356 
	C251.800629,533.695618 249.383301,533.336243 247.260193,533.967102 
	C240.907516,535.854736 237.228714,542.508545 238.743546,548.710266 
	C240.344818,555.265869 245.943695,559.209778 252.728058,558.561035 
	C259.412323,557.921997 264.093231,552.720764 264.048309,545.917786 
	C264.008850,539.939575 260.942963,536.076172 254.083481,533.602356 
M2491.046143,1722.138916 
	C2492.755859,1723.100586 2494.362305,1724.397827 2496.194580,1724.961182 
	C2501.828613,1726.693604 2507.695557,1724.343262 2510.705078,1719.441772 
	C2513.390869,1715.067749 2512.960205,1708.552856 2509.724854,1704.614868 
	C2506.093262,1700.194580 2499.690918,1698.695435 2494.509033,1701.052246 
	C2489.179932,1703.476074 2486.273438,1708.749268 2487.362305,1714.822998 
	C2487.752930,1717.000244 2489.096436,1719.006714 2491.046143,1722.138916 
M2487.488770,1649.833984 
	C2488.326660,1651.599121 2488.828125,1653.656982 2490.063477,1655.076050 
	C2494.187988,1659.813354 2499.904297,1660.900269 2505.256836,1658.319824 
	C2510.960938,1655.569946 2513.647949,1649.746094 2512.106689,1643.474365 
	C2510.830566,1638.280640 2506.212891,1634.436279 2500.746338,1634.015991 
	C2494.551514,1633.539673 2489.510986,1637.087769 2487.561768,1643.538208 
	C2487.102783,1645.056519 2487.296875,1646.772339 2487.488770,1649.833984 
M118.327385,558.335022 
	C120.289040,558.340942 122.333511,558.711182 124.197441,558.287292 
	C130.874130,556.769165 134.720230,551.136108 133.975479,544.395630 
	C133.249939,537.829041 127.860344,533.208862 121.078522,533.340027 
	C114.457283,533.468079 108.844940,538.351013 108.465996,544.870239 
	C108.103256,551.110718 111.141594,555.531738 118.327385,558.335022 
M2834.698242,1706.053711 
	C2833.304688,1704.650757 2832.122803,1702.894531 2830.479004,1701.909668 
	C2825.112793,1698.694580 2819.052734,1699.473999 2814.872314,1703.596802 
	C2810.770752,1707.641968 2809.907471,1714.231934 2812.820801,1719.257568 
	C2815.554443,1723.973267 2821.341064,1726.546875 2826.480469,1725.332764 
	C2832.351562,1723.945801 2836.106934,1719.484497 2836.364258,1713.173950 
	C2836.443604,1711.230713 2835.799561,1709.258057 2834.698242,1706.053711 
M1979.001099,676.414429 
	C1981.547974,676.884033 1984.166626,677.985718 1986.628296,677.705688 
	C1994.284912,676.834717 1999.366943,668.937256 1997.318726,661.730347 
	C1995.314819,654.678894 1987.742065,650.554565 1980.999146,652.842346 
	C1973.523682,655.378540 1969.930908,663.286621 1973.308594,670.383240 
	C1974.257935,672.377991 1976.164307,673.917297 1979.001099,676.414429 
M2038.421753,672.316223 
	C2040.177856,673.776550 2041.728760,675.667847 2043.727051,676.619385 
	C2050.785156,679.980164 2058.916016,676.325500 2061.331299,668.977356 
	C2063.593506,662.094727 2059.535156,654.632202 2052.432373,652.613220 
	C2045.212769,650.561035 2037.281860,655.641113 2036.414062,663.285034 
	C2036.133789,665.755310 2037.239624,668.382935 2038.421753,672.316223 
M2050.545166,718.184326 
	C2048.011719,718.731384 2045.203857,718.757690 2042.995483,719.921570 
	C2035.925293,723.647827 2034.096558,732.254150 2038.699951,738.546753 
	C2043.093506,744.552551 2051.343994,745.668457 2057.067139,741.030640 
	C2063.201904,736.059326 2063.710938,727.550171 2057.956787,721.928650 
	C2056.373291,720.381775 2054.060059,719.581604 2050.545166,718.184326 
M1992.230469,720.481079 
	C1990.080566,719.702576 1987.974487,718.434143 1985.772461,718.236572 
	C1978.901855,717.620239 1972.771973,722.942566 1972.075317,729.720764 
	C1971.419678,736.100403 1975.908081,742.273193 1982.210205,743.658691 
	C1988.777710,745.102478 1995.766846,740.764648 1997.385620,734.046692 
	C1998.569458,729.134766 1996.985352,724.952209 1992.230469,720.481079 
M44.739555,542.247620 
	C44.601822,544.222229 44.026516,546.285767 44.406212,548.155273 
	C45.680553,554.429749 50.109383,558.202271 56.118507,558.593567 
	C62.231140,558.991577 67.386620,555.625671 69.292061,549.992798 
	C71.011047,544.911133 69.140076,539.089172 64.712608,535.742859 
	C60.265320,532.381531 53.661346,532.412476 48.952003,536.147827 
	C47.459396,537.331726 46.566261,539.271362 44.739555,542.247620 
M178.941818,621.850098 
	C181.398590,622.760010 183.805206,624.254517 186.321518,624.470398 
	C193.949738,625.124634 199.992310,619.273193 199.887680,611.831848 
	C199.781555,604.283997 193.739716,598.825256 186.074020,599.351440 
	C175.380539,600.085449 171.603485,609.984863 178.941818,621.850098 
M193.978592,556.793396 
	C195.618378,554.794006 197.726608,553.016968 198.802719,550.750061 
	C201.216125,545.665894 199.759628,540.134583 195.596359,536.420105 
	C191.473022,532.741272 184.724838,532.277222 180.000992,535.347656 
	C175.827026,538.060669 173.451080,543.428955 174.331390,548.157776 
	C175.371170,553.743225 180.097885,558.140808 185.951447,558.495728 
	C188.182510,558.631042 190.466339,557.895813 193.978592,556.793396 
M2551.976562,1651.094604 
	C2553.820801,1653.337891 2555.279297,1656.151855 2557.585938,1657.711548 
	C2563.316162,1661.586426 2571.176514,1659.490356 2574.820312,1653.631470 
	C2578.420410,1647.842163 2576.743896,1639.850952 2571.150879,1636.142212 
	C2565.365723,1632.306396 2557.156982,1633.479248 2553.751221,1639.410034 
	C2552.099609,1642.286499 2552.297363,1646.224976 2551.976562,1651.094604 
M2943.917480,1638.696655 
	C2943.009521,1641.150391 2941.515381,1643.554810 2941.304199,1646.067261 
	C2940.671143,1653.599487 2946.637695,1659.778809 2953.977539,1659.709473 
	C2961.289795,1659.640381 2966.923828,1653.343750 2966.426270,1645.796265 
	C2965.721436,1635.103271 2955.830322,1631.332031 2943.917480,1638.696655 
M2687.554443,1657.840332 
	C2689.113525,1658.413086 2690.635010,1659.319702 2692.238037,1659.499268 
	C2698.294434,1660.177368 2703.928467,1656.828979 2705.889893,1651.641113 
	C2707.811279,1646.559326 2706.318604,1640.373047 2702.363037,1637.023804 
	C2697.883057,1633.230469 2691.409180,1632.955933 2686.597900,1636.354858 
	C2681.959961,1639.631226 2679.984863,1645.832397 2682.231934,1651.490967 
	C2683.051514,1653.555054 2684.915039,1655.204590 2687.554443,1657.840332 
z"/>
<path fill="#C2F0E6" opacity="1.000000" stroke="none" 
	d="
M1.999990,1202.937256 
	C5.423100,1199.555054 9.270745,1197.535400 12.207635,1194.603516 
	C99.706825,1107.256348 187.283157,1019.985229 274.435883,932.293152 
	C300.294098,906.274841 330.836304,889.344421 366.196472,881.068542 
	C391.271545,875.199951 416.480591,874.659668 442.161774,879.318420 
	C472.007263,884.732666 498.797699,896.494812 522.606995,914.534058 
	C560.672668,943.374756 584.268555,981.840942 593.607117,1028.704834 
	C595.928589,1040.354980 597.631104,1052.358276 597.572144,1064.189087 
	C597.511536,1076.356079 595.619019,1088.636963 593.349365,1100.645264 
	C587.845886,1129.763062 575.990173,1156.227295 557.998779,1179.837646 
	C555.189758,1183.523926 552.013916,1186.968994 548.735107,1190.253662 
	C498.117004,1240.961304 447.378235,1291.548950 396.858002,1342.353882 
	C385.306946,1353.970093 375.800781,1367.020874 371.240021,1383.258301 
	C364.839020,1406.047363 368.486420,1427.107422 380.161987,1447.404541 
	C389.709259,1464.001709 403.317444,1475.666992 420.995331,1482.325806 
	C445.357422,1491.502563 469.337921,1490.025757 491.823914,1476.648438 
	C499.718292,1471.951904 506.740204,1465.572510 513.522278,1459.274414 
	C523.283508,1450.209839 532.369446,1440.423096 541.905701,1431.110718 
	C568.329163,1405.307007 599.427063,1389.073120 636.305725,1383.718994 
	C671.232178,1378.648193 704.687439,1383.004272 736.210632,1398.494141 
	C777.752197,1418.906860 806.400085,1451.330078 822.057617,1495.037598 
	C829.770142,1516.566895 833.414917,1538.885620 831.748535,1561.571045 
	C829.244568,1595.657227 819.037598,1627.293945 796.897278,1654.111938 
	C789.927368,1662.554443 782.413330,1670.593506 774.685974,1678.357056 
	C734.015747,1719.218506 693.195374,1759.930542 652.432922,1800.700317 
	C646.250366,1806.884033 641.383545,1813.599487 639.370117,1822.559082 
	C634.333374,1844.971313 652.019714,1868.184204 674.999939,1867.441528 
	C684.582520,1867.131836 693.575439,1863.855103 700.893372,1856.334229 
	C721.806885,1834.840088 743.206177,1813.818848 764.413696,1792.610596 
	C811.541565,1745.481689 858.673035,1698.356445 905.783875,1651.210449 
	C907.894958,1649.097900 909.817017,1646.796631 912.800293,1644.234131 
	C932.339844,1660.065552 960.370544,1649.459229 965.136292,1626.182495 
	C967.308289,1615.573975 963.516052,1606.668213 957.490906,1598.344116 
	C960.256531,1595.971680 963.185730,1593.763672 965.761841,1591.200684 
	C985.368774,1571.694092 1005.023804,1552.233521 1024.431274,1532.529541 
	C1042.100830,1514.590332 1063.242798,1502.315796 1087.020264,1494.940186 
	C1097.012939,1491.840576 1107.973633,1492.018188 1118.294800,1489.784546 
	C1134.826050,1486.206787 1150.597778,1490.065674 1166.340942,1493.815430 
	C1191.488770,1499.805298 1212.792847,1512.825317 1231.570068,1530.435669 
	C1253.157349,1550.681030 1266.430786,1575.640381 1272.876221,1604.105347 
	C1279.330811,1632.610596 1277.198975,1660.897705 1266.732422,1688.286377 
	C1258.918579,1708.733521 1246.902588,1726.447998 1231.269165,1741.878540 
	C1203.047729,1769.733276 1175.047119,1797.814209 1147.157227,1826.001465 
	C1137.697021,1835.562622 1133.130127,1846.761597 1137.831909,1860.487549 
	C1145.368652,1882.490234 1172.771606,1889.104370 1189.894409,1873.334717 
	C1206.003296,1858.498657 1221.968018,1843.358154 1239.259033,1829.984375 
	C1276.385498,1801.268311 1317.685913,1780.540527 1362.859741,1767.062622 
	C1385.876343,1760.195435 1409.197998,1755.018066 1432.823120,1752.491821 
	C1456.538452,1749.956055 1480.616577,1750.815796 1505.222412,1750.886108 
	C1478.844727,1778.624634 1451.772583,1805.656616 1424.717651,1832.705933 
	C1371.077881,1886.334473 1317.431030,1939.955933 1263.867676,1993.660889 
	C1261.502563,1996.032471 1259.937744,1999.202148 1258.000000,2002.000000 
	C1114.624878,2002.000000 971.249756,2002.000000 826.981201,2001.308472 
	C828.584839,1997.570190 830.844971,1994.286987 833.614319,1991.511963 
	C879.931885,1945.096436 926.313293,1898.744385 972.679810,1852.377808 
	C974.562744,1850.494995 976.515991,1848.675537 978.306274,1846.708130 
	C983.725586,1840.753418 983.203674,1838.851074 974.803589,1834.579346 
	C972.728699,1836.506714 970.485107,1838.461304 968.385498,1840.559814 
	C916.828369,1892.091675 865.279968,1943.632568 813.764282,1995.205933 
	C811.672363,1997.300415 809.913879,1999.727783 808.000000,2002.000000 
	C735.291565,2002.000000 662.583069,2002.000000 588.881775,2001.308594 
	C587.055298,1999.212036 586.464417,1997.567261 585.350281,1996.439209 
	C574.584900,1985.537964 563.666321,1974.787598 552.922546,1963.865234 
	C542.938721,1953.715210 542.823303,1942.385864 552.578857,1932.456055 
	C561.161621,1923.719727 565.085999,1912.983643 565.927063,1901.096069 
	C567.223511,1882.775024 554.546814,1858.684692 531.094666,1852.378906 
	C512.256042,1847.313599 496.412720,1850.737793 482.661743,1864.339233 
	C473.189911,1873.708252 463.944305,1883.310303 454.334686,1892.534302 
	C446.624207,1899.935547 432.408691,1899.888184 424.137543,1893.160889 
	C414.277496,1885.141113 413.800964,1870.724731 423.062042,1861.731323 
	C444.564758,1840.849976 465.717834,1819.599854 486.682037,1798.175781 
	C499.297791,1785.283081 506.711029,1770.279663 501.927490,1751.523438 
	C498.122620,1736.604736 488.902893,1725.816528 474.667969,1720.763428 
	C458.744293,1715.110962 442.863708,1716.243774 430.157562,1728.921265 
	C341.738312,1817.140137 253.464401,1905.504761 165.224945,1993.903564 
	C163.006256,1996.126221 161.720718,1999.280273 159.999969,2002.000000 
	C114.624878,2002.000000 69.249756,2002.000000 23.234283,2001.404785 
	C85.732483,1937.662354 148.872238,1874.516357 212.004700,1811.363037 
	C214.358765,1809.008423 217.332794,1806.923706 218.735168,1804.080566 
	C219.810745,1801.899658 219.814209,1798.143311 218.588516,1796.122437 
	C216.807831,1793.186401 213.381180,1793.638550 210.741135,1795.885010 
	C208.716339,1797.607788 206.873749,1799.548584 204.989822,1801.432373 
	C140.662689,1865.749146 76.332169,1930.062744 12.050868,1994.425415 
	C9.781170,1996.697876 8.005776,1999.463989 6.000015,2002.000000 
	C4.669727,2002.000000 3.339455,2002.000000 2.004591,2002.000000 
	C2.000000,1876.624878 2.000000,1751.249756 2.695171,1624.896973 
	C5.980046,1621.920166 8.827510,1620.178833 11.122650,1617.884888 
	C163.133621,1465.954468 315.100128,1313.979614 467.067780,1162.005981 
	C468.716736,1160.356934 470.931976,1158.932129 471.793732,1156.933105 
	C472.681091,1154.874756 473.239136,1151.244263 472.115662,1150.109985 
	C470.698395,1148.679199 466.964722,1148.060425 465.072937,1148.928101 
	C462.196503,1150.247681 459.943207,1153.044678 457.598846,1155.387817 
	C386.896729,1226.053833 316.216064,1296.741333 245.531967,1367.425293 
	C167.779556,1445.177734 90.043190,1522.946289 12.212215,1600.620117 
	C9.276791,1603.549683 5.424833,1605.560791 1.999985,1608.000000 
	C2.000000,1565.291504 2.000000,1522.583130 2.694498,1478.895508 
	C5.976040,1475.911377 8.814540,1474.158325 11.113158,1471.864136 
	C60.643818,1422.429199 110.114540,1372.934082 159.594543,1323.448364 
	C161.008118,1322.034668 162.411621,1320.610229 163.795441,1319.167603 
	C166.243515,1316.615356 166.462891,1313.989624 164.150314,1311.175781 
	C161.862610,1308.391968 159.176498,1307.796265 156.319290,1309.969116 
	C153.424255,1312.170654 150.627640,1314.550415 148.054871,1317.119507 
	C102.544540,1362.563232 57.101276,1408.074341 11.530083,1453.457031 
	C8.844664,1456.131348 5.198896,1457.841309 2.000005,1460.000000 
	C2.000000,1374.624878 2.000000,1289.249756 1.999990,1202.937256 
M368.416748,1526.806152 
	C358.703735,1512.514648 346.432312,1501.389771 330.087433,1495.005371 
	C319.140686,1490.729492 307.607483,1487.546997 296.198395,1488.497192 
	C274.188293,1490.329956 255.077560,1498.764648 239.117813,1515.379517 
	C214.870117,1540.622192 211.297104,1579.519653 226.461731,1607.959839 
	C241.722168,1636.579712 266.215729,1652.289429 299.947205,1652.227295 
	C326.513062,1652.178223 347.284302,1641.307739 363.676697,1621.198853 
	C375.172943,1607.096191 381.140717,1590.313354 381.515564,1572.507202 
	C381.843719,1556.919800 377.407318,1541.737915 368.416748,1526.806152 
z"/>
<path fill="#A5E4DC" opacity="1.000000" stroke="none" 
	d="
M3002.000000,1211.062744 
	C2999.949463,1210.356689 2997.721436,1208.890991 2995.874023,1207.044434 
	C2936.267578,1147.460083 2876.358643,1088.172241 2817.257324,1028.090088 
	C2785.177246,995.477234 2764.403809,956.017334 2751.856934,912.025818 
	C2742.807373,880.296509 2740.009521,847.926086 2742.285645,815.329346 
	C2745.236816,773.061768 2757.180176,733.206909 2778.408447,696.225891 
	C2792.098145,672.377197 2809.115967,651.368225 2828.593750,632.042053 
	C2848.995850,611.798523 2843.928467,585.349915 2823.895020,570.890015 
	C2813.419678,563.328979 2793.932617,562.698792 2783.377930,569.928833 
	C2779.285645,572.732239 2775.365234,575.917358 2771.854004,579.417847 
	C2727.738037,623.399231 2683.709717,667.468750 2639.671387,711.527954 
	C2638.498779,712.701111 2637.466064,714.014038 2635.355469,715.596619 
	C2614.871094,699.729553 2586.081055,711.479675 2582.807617,736.433716 
	C2581.559326,745.949585 2585.260254,753.982910 2590.587402,761.484741 
	C2587.387939,764.388184 2584.061523,767.164551 2581.008057,770.214294 
	C2535.029297,816.137878 2488.931396,861.944153 2443.206543,908.119629 
	C2423.285645,928.236572 2399.409424,940.914185 2371.923584,945.403442 
	C2331.979248,951.927551 2295.426025,943.011414 2263.720703,916.842163 
	C2238.056641,895.659851 2221.867432,868.691711 2216.575439,836.004639 
	C2210.584717,799.000183 2218.477295,764.666504 2240.872070,734.226379 
	C2245.770752,727.567993 2251.533203,721.467712 2257.392334,715.604431 
	C2414.279297,558.607788 2571.240479,401.685181 2728.120361,244.681259 
	C2732.320557,240.477722 2736.373047,235.887146 2739.448242,230.839600 
	C2753.041748,208.528381 2736.208252,178.743134 2710.027344,177.907547 
	C2697.709473,177.514435 2688.371094,182.701859 2680.009277,191.073242 
	C2600.641357,270.532227 2521.208008,349.926056 2441.794434,429.339478 
	C2415.166016,455.967682 2388.274658,482.339264 2361.981445,509.294464 
	C2329.981934,542.100037 2291.735596,563.883301 2247.508789,574.952515 
	C2226.219727,580.280762 2204.348877,583.078613 2182.330566,581.799866 
	C2135.501465,579.079956 2092.181396,565.272888 2053.934570,537.767822 
	C2020.735840,513.892944 1994.878296,483.723663 1977.499634,446.241699 
	C1966.899048,423.378479 1959.556030,399.711395 1956.410400,374.922516 
	C1951.838745,338.897797 1955.463867,303.629364 1967.080688,268.924896 
	C1976.864136,239.697433 1992.643311,214.233047 2011.275635,190.194275 
	C2013.711060,187.052307 2016.728149,184.350784 2019.554199,181.523544 
	C2075.860840,125.190300 2132.190430,68.880089 2188.460205,12.509842 
	C2191.235596,9.729506 2193.506836,6.446231 2196.006348,2.698553 
	C2292.708496,2.000000 2389.416992,2.000000 2487.007812,2.691579 
	C2485.411621,6.444188 2483.185547,9.757291 2480.417969,12.529325 
	C2417.776123,75.268295 2355.055664,137.928665 2292.425293,200.678940 
	C2287.985352,205.127289 2284.005371,210.055725 2280.016113,214.928543 
	C2262.437012,236.400818 2263.013916,268.611938 2283.821045,290.565521 
	C2305.703125,313.653625 2341.684326,314.803070 2364.374268,292.455780 
	C2406.879150,250.592789 2448.838379,208.175629 2491.028809,165.993240 
	C2493.149658,163.872940 2495.159180,161.604263 2497.484863,159.733322 
	C2502.633789,155.591553 2515.554688,154.176880 2520.182861,157.577515 
	C2526.870850,162.491776 2532.479736,168.576965 2529.779053,177.683670 
	C2528.433594,182.219925 2525.791992,186.836212 2522.522949,190.255890 
	C2509.628662,203.744232 2496.469727,216.999161 2482.974609,229.886017 
	C2474.932129,237.566040 2471.308838,246.249878 2471.844482,257.425354 
	C2472.608643,273.367401 2484.460205,285.104248 2500.224854,286.220062 
	C2512.504150,287.089233 2521.208008,281.835083 2529.274170,273.749237 
	C2567.878418,235.051117 2606.755615,196.623184 2645.145020,157.713608 
	C2675.626953,126.818771 2730.285156,124.842140 2762.798828,157.783585 
	C2767.715332,162.765045 2772.539795,167.852676 2777.679199,172.596359 
	C2796.755615,190.204330 2818.067871,201.213928 2845.221680,196.117569 
	C2860.898438,193.175354 2875.290283,187.932068 2886.608887,176.286530 
	C2893.315918,169.385788 2899.471191,161.951126 2906.107666,154.978363 
	C2922.392334,137.868835 2938.761230,120.838448 2955.192627,103.869698 
	C2969.786133,88.798866 2984.497314,73.841805 2999.218262,58.895241 
	C2999.823975,58.280140 3001.058350,58.284309 3002.000000,57.999992 
	C3002.000000,79.375122 3002.000000,100.750244 3001.366699,123.281326 
	C2999.501709,125.554314 2998.219238,126.621109 2997.044922,127.795517 
	C2860.839355,263.991760 2724.641357,400.195770 2588.444336,536.400085 
	C2587.266113,537.578308 2586.084961,538.753967 2584.923828,539.948792 
	C2582.372559,542.573914 2580.667480,545.545288 2583.964844,548.553040 
	C2586.863281,551.196716 2590.165039,550.553406 2592.962158,548.041016 
	C2595.438721,545.817078 2597.747803,543.404785 2600.104004,541.048767 
	C2730.651123,410.505951 2861.192383,279.957214 2991.757812,149.432632 
	C2995.037598,146.153931 2998.580078,143.138290 3002.000000,139.999969 
	C3002.000000,496.708466 3002.000000,853.416931 3002.000000,1211.062744 
M2869.708740,531.846924 
	C2875.817871,536.019104 2882.713379,536.199036 2889.785645,536.141052 
	C2911.360352,535.964050 2922.968750,518.038513 2920.906738,499.420105 
	C2919.119629,483.285828 2905.256104,467.408600 2882.527100,470.034912 
	C2864.190674,472.153595 2852.682373,490.244629 2853.910156,505.034180 
	C2854.837158,516.200134 2859.905518,524.433472 2869.708740,531.846924 
z"/>
<path fill="#A5E4DC" opacity="1.000000" stroke="none" 
	d="
M1552.063232,505.760254 
	C1547.849609,509.485077 1543.432739,513.006165 1539.459473,516.971802 
	C1525.561646,530.842407 1511.506348,544.442261 1494.622925,554.828552 
	C1473.889526,567.583252 1451.449585,574.738098 1427.410522,578.293762 
	C1398.976807,582.499512 1371.823608,578.358276 1345.231323,568.610962 
	C1327.271118,562.027771 1311.353882,552.067444 1296.499756,539.921631 
	C1272.894287,520.619995 1256.714478,496.377625 1246.127441,468.151154 
	C1236.377441,442.156281 1233.945801,415.428925 1237.382080,387.807037 
	C1239.673950,369.383057 1244.641113,351.899200 1252.736084,335.477997 
	C1260.523804,319.680237 1270.039551,304.859833 1282.727173,292.214508 
	C1345.749023,229.402969 1408.607300,166.427124 1471.515381,103.501389 
	C1473.869873,101.146233 1476.408569,98.911873 1478.411377,96.278824 
	C1488.265015,83.323524 1489.140381,67.774551 1477.447144,53.227959 
	C1469.646729,43.524139 1454.273560,37.988914 1439.392944,44.655975 
	C1435.277832,46.499710 1431.527710,49.629913 1428.271362,52.840557 
	C1409.050537,71.792244 1389.881592,90.801048 1370.966919,110.057533 
	C1342.234253,139.309448 1307.427124,157.118118 1267.247803,163.521362 
	C1214.720337,171.892487 1167.060791,158.970551 1124.463501,127.303665 
	C1119.144043,123.349213 1114.058594,118.980865 1109.359863,114.306602 
	C1075.575195,80.697853 1041.913452,46.965687 1008.235840,13.249500 
	C1006.432495,11.444132 1004.838318,9.429852 1002.115234,6.343854 
	C1014.008179,5.180642 1024.417969,4.162493 1035.413818,2.572172 
	C1254.708496,2.000000 1473.416870,2.000000 1692.688232,2.547239 
	C1682.707520,13.744431 1672.208984,24.439251 1661.613403,35.037170 
	C1573.529785,123.141151 1485.427246,211.226212 1397.337891,299.324524 
	C1395.220093,301.442444 1392.955688,303.473969 1391.183105,305.860382 
	C1389.180786,308.556122 1388.988770,311.925537 1392.072510,313.686859 
	C1393.928589,314.746948 1397.133545,314.749786 1399.150024,313.879181 
	C1401.442139,312.889679 1403.122192,310.433563 1405.004639,308.551361 
	C1504.646606,208.921646 1604.287231,109.290482 1703.885254,9.616856 
	C1706.172974,7.327213 1707.972656,4.549855 1710.000000,2.000002 
	C1772.041748,2.000000 1834.083618,2.000000 1897.078857,2.699959 
	C1895.534668,6.444378 1893.274292,9.725727 1890.504761,12.498677 
	C1820.646240,82.444542 1750.733154,152.335968 1680.835815,222.243011 
	C1678.483521,224.595535 1676.082275,226.913940 1673.905029,229.422806 
	C1671.500732,232.193497 1672.137085,234.907028 1674.595215,237.368851 
	C1677.045532,239.822800 1679.713257,240.499298 1682.526489,238.083313 
	C1684.542236,236.352173 1686.413086,234.447250 1688.294678,232.565918 
	C1762.673828,158.197067 1837.050903,83.825996 1911.402710,9.429600 
	C1913.739746,7.091055 1915.807007,4.482617 1918.000000,2.000007 
	C1962.041870,2.000000 2006.083618,2.000000 2051.062744,2.000007 
	C2050.926758,3.988117 2050.244141,6.362173 2048.719482,7.903950 
	C2035.176392,21.600658 2021.483887,35.149490 2007.836792,48.743317 
	C1995.620117,60.912228 1983.377686,73.055367 1971.196533,85.259758 
	C1957.120117,99.362930 1943.114502,113.536713 1929.048462,127.650299 
	C1915.938721,140.804169 1902.807251,153.936462 1889.654053,167.046799 
	C1875.541138,181.113800 1861.381592,195.133987 1847.261475,209.193710 
	C1835.276367,221.127579 1823.314087,233.084320 1811.349365,245.038635 
	C1796.550537,259.824768 1781.743896,274.603333 1766.970215,289.414612 
	C1754.792236,301.623352 1742.682129,313.899902 1730.496948,326.101379 
	C1716.180908,340.436401 1701.684326,354.593964 1687.520874,369.077454 
	C1678.773438,378.022522 1670.500610,387.431854 1661.291260,397.090302 
	C1634.942505,371.783600 1598.311523,366.724884 1567.105835,384.640900 
	C1537.310669,401.747101 1522.866821,437.645905 1532.151245,471.648926 
	C1535.737427,484.782898 1543.062256,495.769318 1552.063232,505.760254 
z"/>
<path fill="#C2F0E6" opacity="1.000000" stroke="none" 
	d="
M3002.000000,57.062675 
	C3001.058350,58.284309 2999.823975,58.280140 2999.218262,58.895241 
	C2984.497314,73.841805 2969.786133,88.798866 2955.192627,103.869698 
	C2938.761230,120.838448 2922.392334,137.868835 2906.107666,154.978363 
	C2899.471191,161.951126 2893.315918,169.385788 2886.608887,176.286530 
	C2875.290283,187.932068 2860.898438,193.175354 2845.221680,196.117569 
	C2818.067871,201.213928 2796.755615,190.204330 2777.679199,172.596359 
	C2772.539795,167.852676 2767.715332,162.765045 2762.798828,157.783585 
	C2730.285156,124.842140 2675.626953,126.818771 2645.145020,157.713608 
	C2606.755615,196.623184 2567.878418,235.051117 2529.274170,273.749237 
	C2521.208008,281.835083 2512.504150,287.089233 2500.224854,286.220062 
	C2484.460205,285.104248 2472.608643,273.367401 2471.844482,257.425354 
	C2471.308838,246.249878 2474.932129,237.566040 2482.974609,229.886017 
	C2496.469727,216.999161 2509.628662,203.744232 2522.522949,190.255890 
	C2525.791992,186.836212 2528.433594,182.219925 2529.779053,177.683670 
	C2532.479736,168.576965 2526.870850,162.491776 2520.182861,157.577515 
	C2515.554688,154.176880 2502.633789,155.591553 2497.484863,159.733322 
	C2495.159180,161.604263 2493.149658,163.872940 2491.028809,165.993240 
	C2448.838379,208.175629 2406.879150,250.592789 2364.374268,292.455780 
	C2341.684326,314.803070 2305.703125,313.653625 2283.821045,290.565521 
	C2263.013916,268.611938 2262.437012,236.400818 2280.016113,214.928543 
	C2284.005371,210.055725 2287.985352,205.127289 2292.425293,200.678940 
	C2355.055664,137.928665 2417.776123,75.268295 2480.417969,12.529325 
	C2483.185547,9.757291 2485.411621,6.444188 2487.944824,2.691579 
	C2659.333252,2.000000 2830.666748,2.000000 3002.000000,2.000000 
	C3002.000000,20.180702 3002.000000,38.153034 3002.000000,57.062675 
z"/>
<path fill="#FFD049" opacity="1.000000" stroke="none"
	d="
M761.062683,2.000000
	C762.515015,64.019104 742.816711,118.958321 704.042969,167.179718
	C675.888123,202.194778 640.677490,227.902985 599.213318,244.772079
	C574.128784,254.977371 547.882141,260.553162 520.690369,262.469391
	C465.760406,266.340332 414.799042,254.141418 367.871704,225.800278
	C311.982727,192.046829 274.602386,143.329590 254.323151,81.440002
	C246.074783,56.266983 242.678162,30.246861 242.073242,2.909819
	C414.708466,2.000000 587.416931,2.000000 761.062683,2.000000
z"/>
<path fill="#C1F0E6" opacity="1.000000" stroke="none" 
	d="
M1625.916504,1777.949219 
	C1631.485718,1780.740479 1637.046631,1783.547974 1642.625488,1786.319824 
	C1665.794556,1797.830322 1688.349121,1810.361328 1709.113281,1825.922119 
	C1710.596680,1827.033691 1712.702271,1827.314941 1714.979980,1828.593262 
	C1713.220215,1831.680176 1710.715942,1833.958130 1708.822754,1836.663574 
	C1694.884888,1856.580200 1682.903442,1877.613403 1673.737061,1900.154663 
	C1660.467773,1932.785889 1653.898560,1966.756958 1654.000000,2002.000000 
	C1527.958252,2002.000000 1401.916382,2002.000000 1275.147461,2001.363281 
	C1356.132935,1918.978638 1437.844849,1837.229858 1519.569702,1755.493896 
	C1520.501221,1754.562256 1521.601807,1753.799683 1522.623535,1752.958252 
	C1549.112671,1755.787964 1574.907349,1761.830688 1600.255859,1769.873047 
	C1603.400391,1770.870605 1606.352173,1772.475464 1609.782227,1774.777100 
	C1596.050415,1789.907593 1581.922119,1804.052124 1567.818115,1818.220947 
	C1565.941406,1820.106201 1563.262085,1821.859009 1562.633301,1824.136597 
	C1561.975220,1826.520630 1562.595581,1830.066528 1564.104614,1831.936279 
	C1565.009399,1833.057495 1569.002930,1832.612793 1571.032104,1831.653442 
	C1573.312256,1830.575562 1574.956177,1828.138184 1576.854370,1826.269287 
	C1593.211304,1810.165527 1609.563110,1794.056641 1625.916504,1777.949219 
z"/>
<path fill="#FEFFFF" opacity="1.000000" stroke="none" 
	d="
M2158.000000,2002.000000 
	C2068.625000,2002.000000 1979.249756,2002.000000 1888.927002,2001.301758 
	C1885.740234,1997.790039 1883.747925,1994.730469 1881.224976,1992.200073 
	C1844.167725,1955.035278 1807.030396,1917.950195 1769.940918,1880.817383 
	C1765.720947,1876.592285 1761.675415,1872.192993 1757.682007,1867.174316 
	C1763.117920,1854.866577 1773.437622,1847.597412 1782.057495,1838.955200 
	C1802.097290,1818.863647 1826.252808,1804.776001 1852.361206,1794.358643 
	C1889.594360,1779.502563 1928.369385,1776.383667 1967.928589,1781.877808 
	C1991.831177,1785.197632 2014.608276,1792.401245 2035.992676,1803.425293 
	C2066.275635,1819.036255 2092.028564,1840.490234 2112.510010,1867.689087 
	C2142.371094,1907.343994 2158.452148,1951.941650 2158.000000,2002.000000 
z"/>
<path fill="#A5E4DC" opacity="1.000000" stroke="none"
	d="
M160.937286,2002.000000
	C161.720718,1999.280273 163.006256,1996.126221 165.224945,1993.903564
	C253.464401,1905.504761 341.738312,1817.140137 430.157562,1728.921265
	C442.863708,1716.243774 458.744293,1715.110962 474.667969,1720.763428
	C488.902893,1725.816528 498.122620,1736.604736 501.927490,1751.523438
	C506.711029,1770.279663 499.297791,1785.283081 486.682037,1798.175781
	C465.717834,1819.599854 444.564758,1840.849976 423.062042,1861.731323
	C413.800964,1870.724731 414.277496,1885.141113 424.137543,1893.160889
	C432.408691,1899.888184 446.624207,1899.935547 454.334686,1892.534302
	C463.944305,1883.310303 473.189911,1873.708252 482.661743,1864.339233
	C496.412720,1850.737793 512.256042,1847.313599 531.094666,1852.378906
	C554.546814,1858.684692 567.223511,1882.775024 565.927063,1901.096069
	C565.085999,1912.983643 561.161621,1923.719727 552.578857,1932.456055
	C542.823303,1942.385864 542.938721,1953.715210 552.922546,1963.865234
	C563.666321,1974.787598 574.584900,1985.537964 585.350281,1996.439209
	C586.464417,1997.567261 587.055298,1999.212036 587.944458,2001.308594
	C445.958221,2002.000000 303.916412,2002.000000 160.937286,2002.000000
z"/>
<path fill="#A6E4DC" opacity="1.000000" stroke="none" 
	d="
M2158.937256,2002.000000 
	C2158.452148,1951.941650 2142.371094,1907.343994 2112.510010,1867.689087 
	C2092.028564,1840.490234 2066.275635,1819.036255 2035.992676,1803.425293 
	C2014.608276,1792.401245 1991.831177,1785.197632 1967.928589,1781.877808 
	C1928.369385,1776.383667 1889.594360,1779.502563 1852.361206,1794.358643 
	C1826.252808,1804.776001 1802.097290,1818.863647 1782.057495,1838.955200 
	C1773.437622,1847.597412 1763.117920,1854.866577 1757.056152,1867.327881 
	C1752.256592,1873.348022 1747.636719,1878.164429 1744.268799,1883.737427 
	C1722.313354,1920.068359 1709.430420,1959.105347 1710.000000,2002.000000 
	C1691.958252,2002.000000 1673.916382,2002.000000 1654.937256,2002.000000 
	C1653.898560,1966.756958 1660.467773,1932.785889 1673.737061,1900.154663 
	C1682.903442,1877.613403 1694.884888,1856.580200 1708.822754,1836.663574 
	C1710.715942,1833.958130 1713.220215,1831.680176 1715.715088,1828.588989 
	C1738.591675,1798.959595 1766.539185,1776.429443 1798.571899,1758.497681 
	C1827.352173,1742.386597 1857.980835,1731.638794 1890.362671,1726.632568 
	C1916.010986,1722.667236 1941.921021,1722.816284 1967.901001,1725.653076 
	C2001.102539,1729.278564 2032.188110,1739.272705 2061.808350,1754.126953 
	C2081.483398,1763.993774 2099.205811,1776.818726 2116.208496,1790.877930 
	C2144.124756,1813.961548 2165.363281,1842.279541 2182.261719,1873.828491 
	C2196.446533,1900.310913 2206.524170,1928.501831 2210.112549,1958.591797 
	C2211.759521,1972.402466 2212.721191,1986.295044 2213.996826,2001.075195 
	C2195.958252,2002.000000 2177.916260,2002.000000 2158.937256,2002.000000 
z"/>
<path fill="#FFD049" opacity="1.000000" stroke="none" 
	d="
M2472.937256,2002.000000 
	C2472.678467,1951.358521 2492.778320,1909.563477 2531.123779,1877.098633 
	C2556.327881,1855.759521 2586.115723,1843.210815 2619.230225,1840.561523 
	C2671.344971,1836.392212 2716.433105,1852.489990 2753.044922,1890.233643 
	C2773.871826,1911.704468 2787.569580,1937.268799 2794.235596,1966.569458 
	C2796.758789,1977.660278 2798.633789,1988.749756 2798.042969,2001.078247 
	C2689.958252,2002.000000 2581.916260,2002.000000 2472.937256,2002.000000 
z"/>
<path fill="#C2F0E6" opacity="1.000000" stroke="none"
	d="
M1710.937256,2002.000000
	C1709.430420,1959.105347 1722.313354,1920.068359 1744.268799,1883.737427
	C1747.636719,1878.164429 1752.256592,1873.348022 1756.923096,1868.028076
	C1761.675415,1872.192993 1765.720947,1876.592285 1769.940918,1880.817383
	C1807.030396,1917.950195 1844.167725,1955.035278 1881.224976,1992.200073
	C1883.747925,1994.730469 1885.740234,1997.790039 1887.989746,2001.301758
	C1829.291504,2002.000000 1770.583130,2002.000000 1710.937256,2002.000000
z"/>
<path fill="#FED04A" opacity="1.000000" stroke="none"
	d="
M2.000000,742.937378
	C7.644309,742.012451 13.294070,742.193115 18.932049,742.010254
	C59.091705,740.708130 92.451195,776.028137 89.601349,816.932190
	C86.876244,856.045837 53.620884,885.724609 13.702837,882.384216
	C10.385716,882.106628 7.057168,881.965576 2.866964,881.880554
	C2.000000,835.958191 2.000000,789.916443 2.000000,742.937378
z"/>
<path fill="#383E73" opacity="1.000000" stroke="none"
	d="
M1523.136230,1752.374756
	C1521.601807,1753.799683 1520.501221,1754.562256 1519.569702,1755.493896
	C1437.844849,1837.229858 1356.132935,1918.978638 1274.210205,2001.363281
	C1269.258911,2002.000000 1264.517700,2002.000000 1258.888306,2002.000000
	C1259.937744,1999.202148 1261.502563,1996.032471 1263.867676,1993.660889
	C1317.431030,1939.955933 1371.077881,1886.334473 1424.717651,1832.705933
	C1451.772583,1805.656616 1478.844727,1778.624634 1506.184692,1750.974243
	C1529.864990,1727.162720 1553.343140,1704.035034 1576.660400,1680.746460
	C1641.229126,1616.257202 1705.728394,1551.698242 1770.270142,1487.181885
	C1772.383179,1485.069702 1774.365601,1482.443970 1776.956665,1481.318115
	C1778.906982,1480.470703 1782.561523,1480.800659 1783.942749,1482.153442
	C1785.347412,1483.528931 1785.905151,1487.277100 1785.026123,1489.127686
	C1783.664795,1491.993530 1780.855469,1494.217285 1778.510254,1496.563354
	C1696.569092,1578.537842 1614.608521,1660.492676 1532.661011,1742.460571
	C1529.604248,1745.518066 1526.650635,1748.678711 1523.136230,1752.374756
z"/>
<path fill="#FAFEFD" opacity="1.000000" stroke="none"
	d="
M1.999985,1608.888306
	C5.424833,1605.560791 9.276791,1603.549683 12.212215,1600.620117
	C90.043190,1522.946289 167.779556,1445.177734 245.531967,1367.425293
	C316.216064,1296.741333 386.896729,1226.053833 457.598846,1155.387817
	C459.943207,1153.044678 462.196503,1150.247681 465.072937,1148.928101
	C466.964722,1148.060425 470.698395,1148.679199 472.115662,1150.109985
	C473.239136,1151.244263 472.681091,1154.874756 471.793732,1156.933105
	C470.931976,1158.932129 468.716736,1160.356934 467.067780,1162.005981
	C315.100128,1313.979614 163.133621,1465.954468 11.122650,1617.884888
	C8.827510,1620.178833 5.980046,1621.920166 2.695171,1623.959717
	C2.000000,1619.258911 2.000000,1614.517700 1.999985,1608.888306
z"/>
<path fill="#FAFEFD" opacity="1.000000" stroke="none"
	d="
M3002.000000,139.111649
	C2998.580078,143.138290 2995.037598,146.153931 2991.757812,149.432632
	C2861.192383,279.957214 2730.651123,410.505951 2600.104004,541.048767
	C2597.747803,543.404785 2595.438721,545.817078 2592.962158,548.041016
	C2590.165039,550.553406 2586.863281,551.196716 2583.964844,548.553040
	C2580.667480,545.545288 2582.372559,542.573914 2584.923828,539.948792
	C2586.084961,538.753967 2587.266113,537.578308 2588.444336,536.400085
	C2724.641357,400.195770 2860.839355,263.991760 2997.044922,127.795517
	C2998.219238,126.621109 2999.501709,125.554314 3001.366699,124.218643
	C3002.000000,128.741119 3002.000000,133.482224 3002.000000,139.111649
z"/>
<path fill="#2F346F" opacity="1.000000" stroke="none"
	d="
M1709.111694,2.000002
	C1707.972656,4.549855 1706.172974,7.327213 1703.885254,9.616856
	C1604.287231,109.290482 1504.646606,208.921646 1405.004639,308.551361
	C1403.122192,310.433563 1401.442139,312.889679 1399.150024,313.879181
	C1397.133545,314.749786 1393.928589,314.746948 1392.072510,313.686859
	C1388.988770,311.925537 1389.180786,308.556122 1391.183105,305.860382
	C1392.955688,303.473969 1395.220093,301.442444 1397.337891,299.324524
	C1485.427246,211.226212 1573.529785,123.141151 1661.613403,35.037170
	C1672.208984,24.439251 1682.707520,13.744431 1693.625488,2.547239
	C1698.741089,2.000000 1703.482300,2.000000 1709.111694,2.000002
z"/>
<path fill="#FAFEFD" opacity="1.000000" stroke="none"
	d="
M1917.091797,2.000007
	C1915.807007,4.482617 1913.739746,7.091055 1911.402710,9.429600
	C1837.050903,83.825996 1762.673828,158.197067 1688.294678,232.565918
	C1686.413086,234.447250 1684.542236,236.352173 1682.526489,238.083313
	C1679.713257,240.499298 1677.045532,239.822800 1674.595215,237.368851
	C1672.137085,234.907028 1671.500732,232.193497 1673.905029,229.422806
	C1676.082275,226.913940 1678.483521,224.595535 1680.835815,222.243011
	C1750.733154,152.335968 1820.646240,82.444542 1890.504761,12.498677
	C1893.274292,9.725727 1895.534668,6.444378 1898.016113,2.699959
	C1904.061157,2.000000 1910.122437,2.000000 1917.091797,2.000007
z"/>
<path fill="#2F346F" opacity="1.000000" stroke="none"
	d="
M6.888342,2002.000000
	C8.005776,1999.463989 9.781170,1996.697876 12.050868,1994.425415
	C76.332169,1930.062744 140.662689,1865.749146 204.989822,1801.432373
	C206.873749,1799.548584 208.716339,1797.607788 210.741135,1795.885010
	C213.381180,1793.638550 216.807831,1793.186401 218.588516,1796.122437
	C219.814209,1798.143311 219.810745,1801.899658 218.735168,1804.080566
	C217.332794,1806.923706 214.358765,1809.008423 212.004700,1811.363037
	C148.872238,1874.516357 85.732483,1937.662354 22.296968,2001.404785
	C17.258884,2002.000000 12.517770,2002.000000 6.888342,2002.000000
z"/>
<path fill="#FAFEFD" opacity="1.000000" stroke="none"
	d="
M2.000005,1460.899902
	C5.198896,1457.841309 8.844664,1456.131348 11.530083,1453.457031
	C57.101276,1408.074341 102.544540,1362.563232 148.054871,1317.119507
	C150.627640,1314.550415 153.424255,1312.170654 156.319290,1309.969116
	C159.176498,1307.796265 161.862610,1308.391968 164.150314,1311.175781
	C166.462891,1313.989624 166.243515,1316.615356 163.795441,1319.167603
	C162.411621,1320.610229 161.008118,1322.034668 159.594543,1323.448364
	C110.114540,1372.934082 60.643818,1422.429199 11.113158,1471.864136
	C8.814540,1474.158325 5.976040,1475.911377 2.694498,1477.958252
	C2.000000,1472.599976 2.000000,1467.199951 2.000005,1460.899902
z"/>
<path fill="#FAFEFD" opacity="1.000000" stroke="none"
	d="
M808.899963,2002.000000
	C809.913879,1999.727783 811.672363,1997.300415 813.764282,1995.205933
	C865.279968,1943.632568 916.828369,1892.091675 968.385498,1840.559814
	C970.485107,1838.461304 972.728699,1836.506714 974.803589,1834.579346
	C983.203674,1838.851074 983.725586,1840.753418 978.306274,1846.708130
	C976.515991,1848.675537 974.562744,1850.494995 972.679810,1852.377808
	C926.313293,1898.744385 879.931885,1945.096436 833.614319,1991.511963
	C830.844971,1994.286987 828.584839,1997.570190 826.043884,2001.308472
	C820.599976,2002.000000 815.199951,2002.000000 808.899963,2002.000000
z"/>
<path fill="#A7E4DC" opacity="1.000000" stroke="none"
	d="
M827.090271,430.330353
	C821.499329,424.322479 814.985596,418.929352 810.494751,412.188568
	C798.261108,393.825653 788.828979,374.131287 785.630493,351.906433
	C781.730652,324.808899 782.922546,298.173615 793.057190,272.484894
	C801.450562,251.210007 813.760315,232.346771 830.563843,216.724808
	C853.334412,195.555374 880.140381,182.770493 910.992310,177.943817
	C943.782837,172.813873 974.565308,178.766357 1003.493286,194.044434
	C1023.656128,204.693314 1040.732422,219.292755 1054.159302,238.123230
	C1068.944458,258.859009 1078.932739,281.569794 1081.428345,306.790405
	C1084.137329,334.169647 1082.133545,361.207703 1069.773804,386.710205
	C1061.130371,404.544495 1050.775879,421.038635 1036.191650,434.565674
	C1012.904480,456.164886 985.694336,469.495728 954.052734,474.111389
	C909.891296,480.553345 871.405884,467.833862 836.717651,439.849060
	C843.751770,431.853027 850.861267,424.971313 858.320740,418.662415
	C887.416321,442.017456 920.015625,450.293549 955.905090,443.490936
	C981.446045,438.649841 1002.838806,425.852142 1020.704590,406.682861
	C1048.791870,376.546478 1057.157593,341.036285 1049.837646,301.509491
	C1044.049683,270.255157 1026.591919,245.922913 1000.786377,227.905655
	C975.589600,210.313492 947.677551,203.226440 916.791748,207.772079
	C874.176208,214.044067 844.197998,237.537964 824.910645,274.927460
	C812.450867,299.081360 810.702454,325.326813 816.213989,351.714539
	C820.203003,370.812683 828.257996,388.318481 841.814087,402.773651
	C843.954590,405.056213 847.137207,406.361511 849.604553,408.730042
	C841.944214,416.337738 834.517212,423.334045 827.090271,430.330353
z"/>
<path fill="#2D326F" opacity="1.000000" stroke="none"
	d="
M1552.666504,506.079407
	C1543.062256,495.769318 1535.737427,484.782898 1532.151245,471.648926
	C1522.866821,437.645905 1537.310669,401.747101 1567.105835,384.640900
	C1598.311523,366.724884 1634.942505,371.783600 1661.173584,397.795532
	C1674.661743,413.204620 1682.561279,430.348236 1682.156006,450.608337
	C1681.527710,482.012634 1667.270142,505.628296 1639.215698,519.303406
	C1611.572021,532.778442 1584.467407,529.486694 1559.349365,511.537018
	C1557.197632,509.999359 1555.290527,508.119446 1552.666504,506.079407
z"/>
<path fill="#FED04A" opacity="1.000000" stroke="none"
	d="
M2727.799316,1232.214600
	C2700.614014,1205.840454 2700.055420,1165.280762 2718.666504,1139.427856
	C2734.477295,1117.464966 2764.016846,1106.233032 2789.953125,1111.208618
	C2815.973633,1116.200439 2841.115234,1139.186157 2845.445312,1167.478394
	C2851.112305,1204.503906 2834.314453,1233.087036 2802.765869,1245.938354
	C2775.985596,1256.847412 2750.508057,1251.899658 2727.799316,1232.214600
z"/>
<path fill="#C2F0E6" opacity="1.000000" stroke="none"
	d="
M697.345459,853.574524
	C684.281006,862.308289 670.860413,866.773682 655.506470,866.288269
	C645.085632,865.958801 635.584656,863.163574 627.213440,857.914612
	C593.746704,836.930115 585.564392,798.448669 607.024109,767.104797
	C623.466797,743.088806 652.729858,733.552124 681.172546,744.495239
	C710.716370,755.861877 722.525146,780.645081 721.805420,805.656921
	C721.364807,820.969666 716.332153,834.983093 704.994934,846.067017
	C702.612610,848.396118 700.247192,850.742493 697.345459,853.574524
z"/>
<path fill="#2F346F" opacity="1.000000" stroke="none"
	d="
M2362.256348,1635.783691
	C2370.179199,1641.695801 2377.375488,1647.463501 2385.163818,1653.705811
	C2389.811768,1649.140015 2394.470215,1643.981812 2399.723633,1639.525146
	C2410.483643,1630.396851 2426.617920,1635.983643 2429.473389,1649.634277
	C2430.807373,1656.010864 2428.726318,1661.506348 2424.411377,1666.150635
	C2420.132568,1670.756470 2415.664307,1675.186157 2410.612549,1680.378052
	C2415.521729,1685.400391 2420.317871,1689.883789 2424.623047,1694.797729
	C2434.202637,1705.732300 2429.783203,1721.231445 2416.165527,1725.019287
	C2409.430908,1726.892456 2403.552246,1724.953613 2398.736328,1720.258911
	C2394.220459,1715.856445 2390.145752,1711.001465 2385.347656,1705.768311
	C2379.825195,1711.111572 2375.368896,1715.510376 2370.814453,1719.805298
	C2366.230957,1724.127808 2360.869141,1726.556152 2354.450928,1725.456177
	C2340.310791,1723.032349 2334.317383,1706.286987 2343.917969,1695.345093
	C2348.276611,1690.377441 2353.597656,1686.254150 2359.237793,1681.051025
	C2354.125977,1675.900635 2350.043945,1671.614380 2345.773438,1667.525024
	C2339.250977,1661.279053 2337.596680,1653.872925 2340.842285,1645.640869
	C2343.891357,1637.907837 2350.643066,1634.886963 2362.256348,1635.783691
z"/>
<path fill="#2F346F" opacity="1.000000" stroke="none"
	d="
M194.287384,447.687592
	C172.987137,424.198547 182.537460,390.469360 207.537964,379.433746
	C226.279938,371.160736 247.917267,376.974731 259.843323,393.727570
	C271.607697,410.253265 269.848511,432.847107 255.635284,447.773285
	C241.860641,462.238831 218.575867,464.906494 201.732864,453.845215
	C199.251053,452.215332 197.085449,450.104004 194.287384,447.687592
z"/>
<path fill="#FED04A" opacity="1.000000" stroke="none"
	d="
M963.816528,1236.082275
	C978.102783,1250.275757 977.454529,1267.647583 971.284790,1278.575562
	C963.929260,1291.604126 952.829346,1296.832886 938.177856,1295.968018
	C924.208008,1295.143555 915.601501,1287.074707 910.202820,1275.241089
	C904.404724,1262.531738 906.759521,1250.451538 915.669006,1239.939941
	C925.901428,1227.867676 941.998962,1224.792114 956.336914,1231.695068
	C958.722168,1232.843506 960.962402,1234.293091 963.816528,1236.082275
z"/>
<path fill="#FED04A" opacity="1.000000" stroke="none"
	d="
M900.958496,1321.446289
	C905.093811,1333.650513 903.407715,1344.035767 896.866943,1354.467407
	C887.491394,1369.419922 862.805481,1372.465698 848.892822,1361.568726
	C833.343506,1349.390015 830.830139,1327.777588 842.906494,1312.737427
	C859.174561,1292.476929 891.794983,1298.213135 900.958496,1321.446289
z"/>
<path fill="#A7E4DC" opacity="1.000000" stroke="none"
	d="
M1812.032959,512.609863
	C1791.018066,502.133179 1788.261353,465.273102 1814.622192,452.731506
	C1825.540405,447.536957 1841.376587,449.456055 1850.229736,457.299133
	C1861.561768,467.338257 1865.157349,482.152557 1859.685303,496.256500
	C1855.068237,508.156708 1843.466431,516.295715 1830.129883,516.005005
	C1824.292969,515.877686 1818.492554,514.078796 1812.032959,512.609863
z"/>
<path fill="#2F346F" opacity="1.000000" stroke="none" 
	d="
M2591.178467,761.805664 
	C2585.260254,753.982910 2581.559326,745.949585 2582.807617,736.433716 
	C2586.081055,711.479675 2614.871094,699.729553 2634.988281,716.193481 
	C2641.846191,723.703186 2646.107178,731.815063 2645.482910,741.631348 
	C2643.920166,766.203003 2617.010254,779.441772 2596.398682,765.860474 
	C2594.750977,764.774658 2593.307861,763.378540 2591.178467,761.805664 
z"/>
<path fill="#2F346F" opacity="1.000000" stroke="none"
	d="
M956.890747,1598.046265
	C963.516052,1606.668213 967.308289,1615.573975 965.136292,1626.182495
	C960.370544,1649.459229 932.339844,1660.065552 913.138916,1643.599121
	C906.421204,1636.359375 902.628052,1628.493164 902.996216,1619.029541
	C903.931763,1594.979492 930.166138,1580.987061 950.768921,1593.570435
	C952.728943,1594.767456 954.455566,1596.346558 956.890747,1598.046265
z"/>
<path fill="#2F346F" opacity="1.000000" stroke="none" 
	d="
M828.990906,822.233154 
	C832.581909,816.055603 836.116760,810.603699 840.262634,804.209412 
	C838.207031,802.072205 835.404724,799.378845 832.856873,796.463135 
	C827.709290,790.572327 827.750732,783.271484 832.794617,778.706543 
	C837.490662,774.456360 844.351990,774.769653 849.752258,779.906372 
	C852.362549,782.389343 854.373779,785.502075 857.077820,788.852051 
	C861.281738,784.940796 864.039673,782.214661 866.967041,779.684570 
	C872.919067,774.540466 880.182373,774.521423 884.739136,779.511597 
	C889.164307,784.357666 888.997253,790.904297 883.846191,796.473145 
	C881.385010,799.134033 878.250732,801.172241 874.712769,804.073242 
	C878.410339,807.970093 881.163269,810.674133 883.690002,813.575195 
	C889.072266,819.754456 889.229248,826.420288 884.260742,831.318481 
	C879.459717,836.051636 872.450745,835.712646 866.542236,830.150696 
	C864.137756,827.887085 862.228638,825.097351 859.388855,821.704346 
	C855.859741,824.986877 853.309692,827.380249 850.736267,829.748230 
	C841.338684,838.395752 832.457764,835.627197 828.990906,822.233154 
z"/>
<path fill="#2F346F" opacity="1.000000" stroke="none" 
	d="
M826.751343,430.944519 
	C834.517212,423.334045 841.944214,416.337738 850.170105,408.341888 
	C862.737061,395.570496 874.476685,383.770172 886.284668,372.038574 
	C892.438904,365.924194 895.681458,365.104523 898.735779,368.608826 
	C901.395142,371.659973 900.393921,374.913605 895.020081,380.390656 
	C882.680603,392.967102 870.321777,405.524475 857.970825,418.089600 
	C850.861267,424.971313 843.751770,431.853027 836.322510,439.309509 
	C819.270813,456.475647 802.543396,473.071594 785.800476,489.651947 
	C783.912354,491.521667 782.214294,494.039581 779.918457,494.904846 
	C777.876587,495.674408 774.293701,495.408264 772.924927,494.051575 
	C771.556030,492.694824 771.261536,489.118103 772.008606,487.064789 
	C772.846863,484.760681 775.317749,483.011322 777.185791,481.127197 
	C793.581055,464.590881 810.000305,448.078308 826.751343,430.944519 
z"/>
<path fill="#2F346F" opacity="1.000000" stroke="none"
	d="
M1626.204346,1777.343994
	C1609.563110,1794.056641 1593.211304,1810.165527 1576.854370,1826.269287
	C1574.956177,1828.138184 1573.312256,1830.575562 1571.032104,1831.653442
	C1569.002930,1832.612793 1565.009399,1833.057495 1564.104614,1831.936279
	C1562.595581,1830.066528 1561.975220,1826.520630 1562.633301,1824.136597
	C1563.262085,1821.859009 1565.941406,1820.106201 1567.818115,1818.220947
	C1581.922119,1804.052124 1596.050415,1789.907593 1610.469116,1775.146240
	C1625.960571,1759.591553 1641.164917,1744.657471 1656.341309,1729.694824
	C1661.563110,1724.546265 1666.705688,1719.317505 1671.904663,1714.145630
	C1673.320190,1712.737549 1674.724365,1711.296631 1676.281738,1710.056763
	C1679.040771,1707.860474 1681.875366,1707.932251 1684.292847,1710.551758
	C1686.677979,1713.135742 1686.570190,1715.997559 1684.343140,1718.646606
	C1682.846558,1720.426758 1681.148193,1722.041260 1679.500854,1723.690552
	C1661.835938,1741.377808 1644.163086,1759.057129 1626.204346,1777.343994
z"/>
<path fill="#373B71" opacity="1.000000" stroke="none"
	d="
M260.935638,620.408569
	C258.418915,622.060181 256.537201,623.676392 254.390854,624.192810
	C248.228729,625.675293 242.815353,623.116150 240.010437,617.894775
	C237.376968,612.992554 238.163605,607.151306 242.001801,603.107788
	C245.508316,599.413696 252.092194,598.168457 256.826294,600.304016
	C261.951355,602.615967 264.898499,608.281616 263.823700,614.441040
	C263.493774,616.331482 262.266266,618.065369 260.935638,620.408569
z"/>
<path fill="#373B71" opacity="1.000000" stroke="none"
	d="
M133.771973,608.907227
	C133.246292,619.490479 129.961029,623.847656 122.713280,624.526367
	C116.562660,625.102417 111.576561,622.045776 109.337517,616.326599
	C107.195801,610.855957 109.127426,604.730164 114.046677,601.392517
	C118.748230,598.202576 125.463676,598.501099 129.727631,602.465820
	C131.369125,603.992065 132.347870,606.231079 133.771973,608.907227
z"/>
<path fill="#373B71" opacity="1.000000" stroke="none"
	d="
M2949.564453,1724.755493
	C2943.769775,1722.296387 2941.291748,1718.298584 2941.147217,1712.887329
	C2940.981445,1706.694824 2945.442383,1701.255249 2951.379395,1700.131348
	C2957.402588,1698.991333 2963.749512,1702.441895 2965.797852,1707.970215
	C2968.106934,1714.202271 2965.713135,1721.328369 2959.704102,1723.922607
	C2956.916016,1725.126343 2953.430176,1724.713745 2949.564453,1724.755493
z"/>
<path fill="#373B71" opacity="1.000000" stroke="none"
	d="
M2619.570801,1720.478516
	C2618.458008,1717.370605 2617.254395,1714.880493 2617.184326,1712.358887
	C2617.032227,1706.906006 2620.877930,1702.046021 2625.934082,1700.449219
	C2631.358887,1698.736084 2637.541748,1701.006226 2640.624512,1705.843140
	C2643.348389,1710.116943 2643.015381,1716.752930 2639.879639,1720.685425
	C2636.482422,1724.945679 2630.899170,1726.710693 2625.744385,1724.744873
	C2623.664551,1723.951538 2621.901367,1722.327881 2619.570801,1720.478516
z"/>
<path fill="#373B71" opacity="1.000000" stroke="none"
	d="
M2618.729004,1653.291504
	C2617.897461,1650.745605 2617.066650,1648.824829 2617.075684,1646.908203
	C2617.104492,1640.857056 2620.947998,1635.905273 2626.414062,1634.386475
	C2631.852051,1632.875488 2638.074463,1635.422729 2640.891602,1640.313354
	C2643.651123,1645.104004 2642.754150,1651.947876 2638.858398,1655.824463
	C2634.540527,1660.121094 2629.120605,1660.939819 2623.477783,1657.824829
	C2621.812012,1656.905396 2620.557373,1655.241333 2618.729004,1653.291504
z"/>
<path fill="#373B71" opacity="1.000000" stroke="none"
	d="
M2891.374268,1725.553345
	C2888.718018,1725.316650 2886.655518,1725.283813 2884.917969,1724.515259
	C2878.630371,1721.734375 2875.882568,1716.468628 2877.163574,1710.243896
	C2878.284668,1704.794678 2882.498779,1700.784912 2887.862549,1700.063354
	C2893.609619,1699.290527 2899.277832,1702.495605 2901.464600,1707.753906
	C2903.798584,1713.366943 2901.983643,1719.465698 2896.599854,1723.413574
	C2895.309082,1724.360107 2893.621826,1724.765503 2891.374268,1725.553345
z"/>
<path fill="#373B71" opacity="1.000000" stroke="none"
	d="
M2764.376953,1700.853149
	C2767.352295,1703.854126 2770.580322,1706.172363 2771.717773,1709.260864
	C2774.266113,1716.179321 2769.751709,1723.321289 2762.513916,1725.237183
	C2755.990967,1726.963867 2749.214111,1722.864136 2747.314941,1716.042725
	C2745.365479,1709.039917 2749.615479,1701.774292 2756.857178,1700.272705
	C2759.021729,1699.823853 2761.400391,1700.408569 2764.376953,1700.853149
z"/>
<path fill="#373B71" opacity="1.000000" stroke="none"
	d="
M2706.642090,1712.091797
	C2704.612793,1722.097656 2699.508301,1726.634033 2692.360596,1725.537598
	C2686.486572,1724.636353 2682.171875,1720.205078 2681.482666,1714.365723
	C2680.803223,1708.608765 2683.297852,1703.874878 2688.347900,1701.338501
	C2693.703125,1698.648804 2699.739502,1699.614746 2703.519531,1704.324707
	C2705.068848,1706.255249 2705.611816,1708.993408 2706.642090,1712.091797
z"/>
<path fill="#373B71" opacity="1.000000" stroke="none"
	d="
M2567.116699,1700.283936
	C2576.519775,1705.821899 2579.017578,1712.311523 2575.086426,1719.206055
	C2572.632080,1723.510742 2567.156006,1726.260010 2562.431152,1725.559814
	C2556.935059,1724.745361 2552.560303,1720.583618 2551.591553,1715.248413
	C2550.552246,1709.524170 2552.723633,1704.100342 2557.750488,1701.770264
	C2560.324707,1700.577271 2563.476074,1700.630005 2567.116699,1700.283936
z"/>
<path fill="#373B71" opacity="1.000000" stroke="none"
	d="
M60.592445,624.177124
	C49.423222,624.137024 43.670067,619.318359 44.187370,611.182617
	C44.504501,606.195007 48.010262,601.483887 52.551067,599.943237
	C57.689236,598.199890 63.663506,599.788574 66.920952,603.764526
	C70.428513,608.045715 71.128349,614.009583 67.939125,618.447815
	C66.304688,620.722351 63.551208,622.192871 60.592445,624.177124
z"/>
<path fill="#373B71" opacity="1.000000" stroke="none"
	d="
M2889.896729,1659.709473
	C2886.705566,1658.813477 2883.954346,1658.347168 2881.901611,1656.893921
	C2876.038818,1652.743286 2875.230957,1643.981934 2879.867432,1638.515625
	C2884.844482,1632.647583 2893.849121,1632.449341 2899.060547,1638.092896
	C2903.940674,1643.377930 2903.487305,1652.053223 2897.755859,1656.523315
	C2895.772461,1658.069946 2893.043945,1658.661011 2889.896729,1659.709473
z"/>
<path fill="#373B71" opacity="1.000000" stroke="none"
	d="
M2816.706055,1636.166992
	C2827.042969,1632.855347 2833.846924,1635.450317 2836.040283,1642.890869
	C2837.614502,1648.231079 2835.733398,1653.935059 2831.337158,1657.154297
	C2826.786621,1660.486328 2821.110596,1660.520996 2816.404053,1657.245117
	C2811.951416,1654.145874 2809.891113,1648.572021 2811.785889,1643.113647
	C2812.614990,1640.725708 2814.593262,1638.736938 2816.706055,1636.166992
z"/>
<path fill="#373B71" opacity="1.000000" stroke="none"
	d="
M2766.877930,1657.315430
	C2757.259033,1660.732056 2750.904785,1658.769287 2747.947021,1652.083374
	C2745.719727,1647.049438 2746.835205,1641.330933 2750.780518,1637.556396
	C2755.050049,1633.471802 2761.229004,1632.798462 2766.272705,1635.868286
	C2770.880859,1638.672974 2773.480957,1644.124390 2771.947510,1649.465576
	C2771.178223,1652.145752 2769.013672,1654.425293 2766.877930,1657.315430
z"/>
<path fill="#373B71" opacity="1.000000" stroke="none"
	d="
M254.797668,533.757690
	C260.942963,536.076172 264.008850,539.939575 264.048309,545.917786
	C264.093231,552.720764 259.412323,557.921997 252.728058,558.561035
	C245.943695,559.209778 240.344818,555.265869 238.743546,548.710266
	C237.228714,542.508545 240.907516,535.854736 247.260193,533.967102
	C249.383301,533.336243 251.800629,533.695618 254.797668,533.757690
z"/>
<path fill="#373B71" opacity="1.000000" stroke="none"
	d="
M2490.525391,1721.614990
	C2489.096436,1719.006714 2487.752930,1717.000244 2487.362305,1714.822998
	C2486.273438,1708.749268 2489.179932,1703.476074 2494.509033,1701.052246
	C2499.690918,1698.695435 2506.093262,1700.194580 2509.724854,1704.614868
	C2512.960205,1708.552856 2513.390869,1715.067749 2510.705078,1719.441772
	C2507.695557,1724.343262 2501.828613,1726.693604 2496.194580,1724.961182
	C2494.362305,1724.397827 2492.755859,1723.100586 2490.525391,1721.614990
z"/>
<path fill="#373B71" opacity="1.000000" stroke="none"
	d="
M2487.339844,1649.115601
	C2487.296875,1646.772339 2487.102783,1645.056519 2487.561768,1643.538208
	C2489.510986,1637.087769 2494.551514,1633.539673 2500.746338,1634.015991
	C2506.212891,1634.436279 2510.830566,1638.280640 2512.106689,1643.474365
	C2513.647949,1649.746094 2510.960938,1655.569946 2505.256836,1658.319824
	C2499.904297,1660.900269 2494.187988,1659.813354 2490.063477,1655.076050
	C2488.828125,1653.656982 2488.326660,1651.599121 2487.339844,1649.115601
z"/>
<path fill="#373B71" opacity="1.000000" stroke="none"
	d="
M117.618446,558.177368
	C111.141594,555.531738 108.103256,551.110718 108.465996,544.870239
	C108.844940,538.351013 114.457283,533.468079 121.078522,533.340027
	C127.860344,533.208862 133.249939,537.829041 133.975479,544.395630
	C134.720230,551.136108 130.874130,556.769165 124.197441,558.287292
	C122.333511,558.711182 120.289040,558.340942 117.618446,558.177368
z"/>
<path fill="#373B71" opacity="1.000000" stroke="none"
	d="
M2835.092529,1706.676270
	C2835.799561,1709.258057 2836.443604,1711.230713 2836.364258,1713.173950
	C2836.106934,1719.484497 2832.351562,1723.945801 2826.480469,1725.332764
	C2821.341064,1726.546875 2815.554443,1723.973267 2812.820801,1719.257568
	C2809.907471,1714.231934 2810.770752,1707.641968 2814.872314,1703.596802
	C2819.052734,1699.473999 2825.112793,1698.694580 2830.479004,1701.909668
	C2832.122803,1702.894531 2833.304688,1704.650757 2835.092529,1706.676270
z"/>
<path fill="#383E73" opacity="1.000000" stroke="none"
	d="
M1978.316406,676.040039
	C1976.164307,673.917297 1974.257935,672.377991 1973.308594,670.383240
	C1969.930908,663.286621 1973.523682,655.378540 1980.999146,652.842346
	C1987.742065,650.554565 1995.314819,654.678894 1997.318726,661.730347
	C1999.366943,668.937256 1994.284912,676.834717 1986.628296,677.705688
	C1984.166626,677.985718 1981.547974,676.884033 1978.316406,676.040039
z"/>
<path fill="#383E73" opacity="1.000000" stroke="none"
	d="
M2038.066528,671.627441
	C2037.239624,668.382935 2036.133789,665.755310 2036.414062,663.285034
	C2037.281860,655.641113 2045.212769,650.561035 2052.432373,652.613220
	C2059.535156,654.632202 2063.593506,662.094727 2061.331299,668.977356
	C2058.916016,676.325500 2050.785156,679.980164 2043.727051,676.619385
	C2041.728760,675.667847 2040.177856,673.776550 2038.066528,671.627441
z"/>
<path fill="#383E73" opacity="1.000000" stroke="none"
	d="
M2051.313477,718.311584
	C2054.060059,719.581604 2056.373291,720.381775 2057.956787,721.928650
	C2063.710938,727.550171 2063.201904,736.059326 2057.067139,741.030640
	C2051.343994,745.668457 2043.093506,744.552551 2038.699951,738.546753
	C2034.096558,732.254150 2035.925293,723.647827 2042.995483,719.921570
	C2045.203857,718.757690 2048.011719,718.731384 2051.313477,718.311584
z"/>
<path fill="#383E73" opacity="1.000000" stroke="none"
	d="
M1992.820190,720.976135
	C1996.985352,724.952209 1998.569458,729.134766 1997.385620,734.046692
	C1995.766846,740.764648 1988.777710,745.102478 1982.210205,743.658691
	C1975.908081,742.273193 1971.419678,736.100403 1972.075317,729.720764
	C1972.771973,722.942566 1978.901855,717.620239 1985.772461,718.236572
	C1987.974487,718.434143 1990.080566,719.702576 1992.820190,720.976135
z"/>
<path fill="#373B71" opacity="1.000000" stroke="none"
	d="
M45.069168,541.556396
	C46.566261,539.271362 47.459396,537.331726 48.952003,536.147827
	C53.661346,532.412476 60.265320,532.381531 64.712608,535.742859
	C69.140076,539.089172 71.011047,544.911133 69.292061,549.992798
	C67.386620,555.625671 62.231140,558.991577 56.118507,558.593567
	C50.109383,558.202271 45.680553,554.429749 44.406212,548.155273
	C44.026516,546.285767 44.601822,544.222229 45.069168,541.556396
z"/>
<path fill="#373B71" opacity="1.000000" stroke="none"
	d="
M178.414978,621.328125
	C171.603485,609.984863 175.380539,600.085449 186.074020,599.351440
	C193.739716,598.825256 199.781555,604.283997 199.887680,611.831848
	C199.992310,619.273193 193.949738,625.124634 186.321518,624.470398
	C183.805206,624.254517 181.398590,622.760010 178.414978,621.328125
z"/>
<path fill="#373B71" opacity="1.000000" stroke="none"
	d="
M193.352356,557.175354
	C190.466339,557.895813 188.182510,558.631042 185.951447,558.495728
	C180.097885,558.140808 175.371170,553.743225 174.331390,548.157776
	C173.451080,543.428955 175.827026,538.060669 180.000992,535.347656
	C184.724838,532.277222 191.473022,532.741272 195.596359,536.420105
	C199.759628,540.134583 201.216125,545.665894 198.802719,550.750061
	C197.726608,553.016968 195.618378,554.794006 193.352356,557.175354
z"/>
<path fill="#373B71" opacity="1.000000" stroke="none"
	d="
M2551.817383,1650.388672
	C2552.297363,1646.224976 2552.099609,1642.286499 2553.751221,1639.410034
	C2557.156982,1633.479248 2565.365723,1632.306396 2571.150879,1636.142212
	C2576.743896,1639.850952 2578.420410,1647.842163 2574.820312,1653.631470
	C2571.176514,1659.490356 2563.316162,1661.586426 2557.585938,1657.711548
	C2555.279297,1656.151855 2553.820801,1653.337891 2551.817383,1650.388672
z"/>
<path fill="#373B71" opacity="1.000000" stroke="none" 
	d="
M2944.443115,1638.155762 
	C2955.830322,1631.332031 2965.721436,1635.103271 2966.426270,1645.796265 
	C2966.923828,1653.343750 2961.289795,1659.640381 2953.977539,1659.709473 
	C2946.637695,1659.778809 2940.671143,1653.599487 2941.304199,1646.067261 
	C2941.515381,1643.554810 2943.009521,1641.150391 2944.443115,1638.155762 
z"/>
<path fill="#373B71" opacity="1.000000" stroke="none"
	d="
M2686.928223,1657.441895
	C2684.915039,1655.204590 2683.051514,1653.555054 2682.231934,1651.490967
	C2679.984863,1645.832397 2681.959961,1639.631226 2686.597900,1636.354858
	C2691.409180,1632.955933 2697.883057,1633.230469 2702.363037,1637.023804
	C2706.318604,1640.373047 2707.811279,1646.559326 2705.889893,1651.641113
	C2703.928467,1656.828979 2698.294434,1660.177368 2692.238037,1659.499268
	C2690.635010,1659.319702 2689.113525,1658.413086 2686.928223,1657.441895
z"/>
<path fill="#FEFFFF" opacity="1.000000" stroke="none" 
	d="
M368.829224,1527.420166 
	C377.407318,1541.737915 381.843719,1556.919800 381.515564,1572.507202 
	C381.140717,1590.313354 375.172943,1607.096191 363.676697,1621.198853 
	C347.284302,1641.307739 326.513062,1652.178223 299.947205,1652.227295 
	C266.215729,1652.289429 241.722168,1636.579712 226.461731,1607.959839 
	C211.297104,1579.519653 214.870117,1540.622192 239.117813,1515.379517 
	C255.077560,1498.764648 274.188293,1490.329956 296.198395,1488.497192 
	C307.607483,1487.546997 319.140686,1490.729492 330.087433,1495.005371 
	C346.432312,1501.389771 358.703735,1512.514648 368.829224,1527.420166 
z"/>
<path fill="#F8F2EC" opacity="1.000000" stroke="none" 
	d="
M2869.062256,531.452759 
	C2859.905518,524.433472 2854.837158,516.200134 2853.910156,505.034180 
	C2852.682373,490.244629 2864.190674,472.153595 2882.527100,470.034912 
	C2905.256104,467.408600 2919.119629,483.285828 2920.906738,499.420105 
	C2922.968750,518.038513 2911.360352,535.964050 2889.785645,536.141052 
	C2882.713379,536.199036 2875.817871,536.019104 2869.062256,531.452759 
z"/>
<path fill="#FEFEFE" opacity="1.000000" stroke="none"
	d="
M858.320740,418.662415
	C870.321777,405.524475 882.680603,392.967102 895.020081,380.390656
	C900.393921,374.913605 901.395142,371.659973 898.735779,368.608826
	C895.681458,365.104523 892.438904,365.924194 886.284668,372.038574
	C874.476685,383.770172 862.737061,395.570496 850.403503,407.730499
	C847.137207,406.361511 843.954590,405.056213 841.814087,402.773651
	C828.257996,388.318481 820.203003,370.812683 816.213989,351.714539
	C810.702454,325.326813 812.450867,299.081360 824.910645,274.927460
	C844.197998,237.537964 874.176208,214.044067 916.791748,207.772079
	C947.677551,203.226440 975.589600,210.313492 1000.786377,227.905655
	C1026.591919,245.922913 1044.049683,270.255157 1049.837646,301.509491
	C1057.157593,341.036285 1048.791870,376.546478 1020.704590,406.682861
	C1002.838806,425.852142 981.446045,438.649841 955.905090,443.490936
	C920.015625,450.293549 887.416321,442.017456 858.320740,418.662415
z"/>
</svg>